<svg xmlns="http://www.w3.org/2000/svg" xmlns:xlink="http://www.w3.org/1999/xlink" width="500" zoomAndPan="magnify" viewBox="0 0 375 374.999991" height="500" preserveAspectRatio="xMidYMid meet" version="1.0"><defs><g/><clipPath id="eaee52d8f0"><path d="M 107 120 L 249 120 L 249 168 L 107 168 Z M 107 120 " clip-rule="nonzero"/></clipPath><clipPath id="41ddad2166"><path d="M 89.046875 121.40625 L 256.933594 104.367188 L 262.308594 157.34375 L 94.421875 174.382812 Z M 89.046875 121.40625 " clip-rule="nonzero"/></clipPath><clipPath id="3c665a2467"><path d="M 89.046875 121.40625 L 256.933594 104.367188 L 275.335938 285.683594 L 107.449219 302.722656 Z M 89.046875 121.40625 " clip-rule="nonzero"/></clipPath><clipPath id="a5dfb93eb7"><path d="M 89.046875 121.40625 L 256.933594 104.367188 L 275.335938 285.683594 L 107.449219 302.722656 Z M 89.046875 121.40625 " clip-rule="nonzero"/></clipPath><clipPath id="bfed45259e"><path d="M 252 160 L 256 160 L 256 165 L 252 165 Z M 252 160 " clip-rule="nonzero"/></clipPath><clipPath id="2f11e249a1"><path d="M 89.046875 121.40625 L 256.933594 104.367188 L 262.308594 157.34375 L 94.421875 174.382812 Z M 89.046875 121.40625 " clip-rule="nonzero"/></clipPath><clipPath id="35ef0ad9c0"><path d="M 89.046875 121.40625 L 256.933594 104.367188 L 275.335938 285.683594 L 107.449219 302.722656 Z M 89.046875 121.40625 " clip-rule="nonzero"/></clipPath><clipPath id="b13fef662e"><path d="M 89.046875 121.40625 L 256.933594 104.367188 L 275.335938 285.683594 L 107.449219 302.722656 Z M 89.046875 121.40625 " clip-rule="nonzero"/></clipPath><clipPath id="b17be4af23"><path d="M 193 119 L 237 119 L 237 132 L 193 132 Z M 193 119 " clip-rule="nonzero"/></clipPath><clipPath id="493ff14192"><path d="M 89.046875 121.40625 L 256.933594 104.367188 L 262.308594 157.34375 L 94.421875 174.382812 Z M 89.046875 121.40625 " clip-rule="nonzero"/></clipPath><clipPath id="9c96d57526"><path d="M 89.046875 121.40625 L 256.933594 104.367188 L 275.335938 285.683594 L 107.449219 302.722656 Z M 89.046875 121.40625 " clip-rule="nonzero"/></clipPath><clipPath id="3524632216"><path d="M 89.046875 121.40625 L 256.933594 104.367188 L 275.335938 285.683594 L 107.449219 302.722656 Z M 89.046875 121.40625 " clip-rule="nonzero"/></clipPath><clipPath id="0b5eac33ac"><path d="M 197 121 L 233 121 L 233 151 L 197 151 Z M 197 121 " clip-rule="nonzero"/></clipPath><clipPath id="15b0c047f0"><path d="M 89.046875 121.40625 L 256.933594 104.367188 L 262.308594 157.34375 L 94.421875 174.382812 Z M 89.046875 121.40625 " clip-rule="nonzero"/></clipPath><clipPath id="5c8e5a6a10"><path d="M 89.046875 121.40625 L 256.933594 104.367188 L 275.335938 285.683594 L 107.449219 302.722656 Z M 89.046875 121.40625 " clip-rule="nonzero"/></clipPath><clipPath id="6457d40ed9"><path d="M 89.046875 121.40625 L 256.933594 104.367188 L 275.335938 285.683594 L 107.449219 302.722656 Z M 89.046875 121.40625 " clip-rule="nonzero"/></clipPath><clipPath id="24ac625b4d"><path d="M 236 135 L 241 135 L 241 140 L 236 140 Z M 236 135 " clip-rule="nonzero"/></clipPath><clipPath id="017f651c9f"><path d="M 89.046875 121.40625 L 256.933594 104.367188 L 262.308594 157.34375 L 94.421875 174.382812 Z M 89.046875 121.40625 " clip-rule="nonzero"/></clipPath><clipPath id="ca1e7eb0cd"><path d="M 89.046875 121.40625 L 256.933594 104.367188 L 275.335938 285.683594 L 107.449219 302.722656 Z M 89.046875 121.40625 " clip-rule="nonzero"/></clipPath><clipPath id="d153bca5a8"><path d="M 89.046875 121.40625 L 256.933594 104.367188 L 275.335938 285.683594 L 107.449219 302.722656 Z M 89.046875 121.40625 " clip-rule="nonzero"/></clipPath><clipPath id="05b829f992"><path d="M 201 122 L 240 122 L 240 139 L 201 139 Z M 201 122 " clip-rule="nonzero"/></clipPath><clipPath id="c6ec01a703"><path d="M 89.046875 121.40625 L 256.933594 104.367188 L 262.308594 157.34375 L 94.421875 174.382812 Z M 89.046875 121.40625 " clip-rule="nonzero"/></clipPath><clipPath id="3bae5acc2c"><path d="M 89.046875 121.40625 L 256.933594 104.367188 L 275.335938 285.683594 L 107.449219 302.722656 Z M 89.046875 121.40625 " clip-rule="nonzero"/></clipPath><clipPath id="aaaf2bb0b7"><path d="M 89.046875 121.40625 L 256.933594 104.367188 L 275.335938 285.683594 L 107.449219 302.722656 Z M 89.046875 121.40625 " clip-rule="nonzero"/></clipPath><clipPath id="c8bd0db8f4"><path d="M 150 112 L 193 112 L 193 128 L 150 128 Z M 150 112 " clip-rule="nonzero"/></clipPath><clipPath id="7ce6f36f8a"><path d="M 89.046875 121.40625 L 256.933594 104.367188 L 262.308594 157.34375 L 94.421875 174.382812 Z M 89.046875 121.40625 " clip-rule="nonzero"/></clipPath><clipPath id="095b700d8b"><path d="M 89.046875 121.40625 L 256.933594 104.367188 L 275.335938 285.683594 L 107.449219 302.722656 Z M 89.046875 121.40625 " clip-rule="nonzero"/></clipPath><clipPath id="95db54389c"><path d="M 89.046875 121.40625 L 256.933594 104.367188 L 275.335938 285.683594 L 107.449219 302.722656 Z M 89.046875 121.40625 " clip-rule="nonzero"/></clipPath><clipPath id="edaba8fdaa"><path d="M 154 122 L 199 122 L 199 134 L 154 134 Z M 154 122 " clip-rule="nonzero"/></clipPath><clipPath id="4f022dc08f"><path d="M 89.046875 121.40625 L 256.933594 104.367188 L 262.308594 157.34375 L 94.421875 174.382812 Z M 89.046875 121.40625 " clip-rule="nonzero"/></clipPath><clipPath id="ecf8790072"><path d="M 89.046875 121.40625 L 256.933594 104.367188 L 275.335938 285.683594 L 107.449219 302.722656 Z M 89.046875 121.40625 " clip-rule="nonzero"/></clipPath><clipPath id="10789cba39"><path d="M 89.046875 121.40625 L 256.933594 104.367188 L 275.335938 285.683594 L 107.449219 302.722656 Z M 89.046875 121.40625 " clip-rule="nonzero"/></clipPath><clipPath id="a81a4fde97"><path d="M 195 116 L 200 116 L 200 120 L 195 120 Z M 195 116 " clip-rule="nonzero"/></clipPath><clipPath id="e7e292c129"><path d="M 89.046875 121.40625 L 256.933594 104.367188 L 262.308594 157.34375 L 94.421875 174.382812 Z M 89.046875 121.40625 " clip-rule="nonzero"/></clipPath><clipPath id="fd5ab0208e"><path d="M 89.046875 121.40625 L 256.933594 104.367188 L 275.335938 285.683594 L 107.449219 302.722656 Z M 89.046875 121.40625 " clip-rule="nonzero"/></clipPath><clipPath id="6cd931a20d"><path d="M 89.046875 121.40625 L 256.933594 104.367188 L 275.335938 285.683594 L 107.449219 302.722656 Z M 89.046875 121.40625 " clip-rule="nonzero"/></clipPath><clipPath id="e5d3b19211"><path d="M 158 117 L 199 117 L 199 126 L 158 126 Z M 158 117 " clip-rule="nonzero"/></clipPath><clipPath id="b37274d408"><path d="M 89.046875 121.40625 L 256.933594 104.367188 L 262.308594 157.34375 L 94.421875 174.382812 Z M 89.046875 121.40625 " clip-rule="nonzero"/></clipPath><clipPath id="25fd566e5e"><path d="M 89.046875 121.40625 L 256.933594 104.367188 L 275.335938 285.683594 L 107.449219 302.722656 Z M 89.046875 121.40625 " clip-rule="nonzero"/></clipPath><clipPath id="43f8508201"><path d="M 89.046875 121.40625 L 256.933594 104.367188 L 275.335938 285.683594 L 107.449219 302.722656 Z M 89.046875 121.40625 " clip-rule="nonzero"/></clipPath><clipPath id="16bd67b982"><path d="M 116 120 L 146 120 L 146 154 L 116 154 Z M 116 120 " clip-rule="nonzero"/></clipPath><clipPath id="463b2c2378"><path d="M 89.046875 121.40625 L 256.933594 104.367188 L 262.308594 157.34375 L 94.421875 174.382812 Z M 89.046875 121.40625 " clip-rule="nonzero"/></clipPath><clipPath id="e5dd727005"><path d="M 89.046875 121.40625 L 256.933594 104.367188 L 275.335938 285.683594 L 107.449219 302.722656 Z M 89.046875 121.40625 " clip-rule="nonzero"/></clipPath><clipPath id="219b5e588a"><path d="M 89.046875 121.40625 L 256.933594 104.367188 L 275.335938 285.683594 L 107.449219 302.722656 Z M 89.046875 121.40625 " clip-rule="nonzero"/></clipPath><clipPath id="a0bf15cf01"><path d="M 118 133 L 161 133 L 161 151 L 118 151 Z M 118 133 " clip-rule="nonzero"/></clipPath><clipPath id="3f92b8a6b1"><path d="M 89.046875 121.40625 L 256.933594 104.367188 L 262.308594 157.34375 L 94.421875 174.382812 Z M 89.046875 121.40625 " clip-rule="nonzero"/></clipPath><clipPath id="56dff43852"><path d="M 89.046875 121.40625 L 256.933594 104.367188 L 275.335938 285.683594 L 107.449219 302.722656 Z M 89.046875 121.40625 " clip-rule="nonzero"/></clipPath><clipPath id="07c306e68d"><path d="M 89.046875 121.40625 L 256.933594 104.367188 L 275.335938 285.683594 L 107.449219 302.722656 Z M 89.046875 121.40625 " clip-rule="nonzero"/></clipPath><clipPath id="a406d04dff"><path d="M 150 119 L 155 119 L 155 124 L 150 124 Z M 150 119 " clip-rule="nonzero"/></clipPath><clipPath id="be7cb1a7d1"><path d="M 89.046875 121.40625 L 256.933594 104.367188 L 262.308594 157.34375 L 94.421875 174.382812 Z M 89.046875 121.40625 " clip-rule="nonzero"/></clipPath><clipPath id="12279f0494"><path d="M 89.046875 121.40625 L 256.933594 104.367188 L 275.335938 285.683594 L 107.449219 302.722656 Z M 89.046875 121.40625 " clip-rule="nonzero"/></clipPath><clipPath id="d960b6bb94"><path d="M 89.046875 121.40625 L 256.933594 104.367188 L 275.335938 285.683594 L 107.449219 302.722656 Z M 89.046875 121.40625 " clip-rule="nonzero"/></clipPath><clipPath id="839448f5be"><path d="M 121 120 L 154 120 L 154 148 L 121 148 Z M 121 120 " clip-rule="nonzero"/></clipPath><clipPath id="6bf346dd27"><path d="M 89.046875 121.40625 L 256.933594 104.367188 L 262.308594 157.34375 L 94.421875 174.382812 Z M 89.046875 121.40625 " clip-rule="nonzero"/></clipPath><clipPath id="6519e54a89"><path d="M 89.046875 121.40625 L 256.933594 104.367188 L 275.335938 285.683594 L 107.449219 302.722656 Z M 89.046875 121.40625 " clip-rule="nonzero"/></clipPath><clipPath id="0100e9ac83"><path d="M 89.046875 121.40625 L 256.933594 104.367188 L 275.335938 285.683594 L 107.449219 302.722656 Z M 89.046875 121.40625 " clip-rule="nonzero"/></clipPath><clipPath id="d8afe1a078"><path d="M 114 237 L 259 237 L 259 288 L 114 288 Z M 114 237 " clip-rule="nonzero"/></clipPath><clipPath id="fd742a14d5"><path d="M 100.691406 236.15625 L 268.578125 219.117188 L 275.394531 286.269531 L 107.507812 303.3125 Z M 100.691406 236.15625 " clip-rule="nonzero"/></clipPath><clipPath id="3d788b5156"><path d="M 89.042969 121.40625 L 256.933594 104.367188 L 275.335938 285.683594 L 107.449219 302.722656 Z M 89.042969 121.40625 " clip-rule="nonzero"/></clipPath><clipPath id="41ec96a165"><path d="M 89.042969 121.40625 L 256.933594 104.367188 L 275.335938 285.683594 L 107.449219 302.722656 Z M 89.042969 121.40625 " clip-rule="nonzero"/></clipPath><clipPath id="fe604d11d2"><path d="M 128 276 L 172 276 L 172 289 L 128 289 Z M 128 276 " clip-rule="nonzero"/></clipPath><clipPath id="235771563f"><path d="M 100.691406 236.15625 L 268.578125 219.117188 L 275.394531 286.269531 L 107.507812 303.3125 Z M 100.691406 236.15625 " clip-rule="nonzero"/></clipPath><clipPath id="ba86c9f56d"><path d="M 89.042969 121.40625 L 256.933594 104.367188 L 275.335938 285.683594 L 107.449219 302.722656 Z M 89.042969 121.40625 " clip-rule="nonzero"/></clipPath><clipPath id="00991b65e9"><path d="M 89.042969 121.40625 L 256.933594 104.367188 L 275.335938 285.683594 L 107.449219 302.722656 Z M 89.042969 121.40625 " clip-rule="nonzero"/></clipPath><clipPath id="dd45377c58"><path d="M 132 257 L 168 257 L 168 286 L 132 286 Z M 132 257 " clip-rule="nonzero"/></clipPath><clipPath id="05ba376c3a"><path d="M 100.691406 236.15625 L 268.578125 219.117188 L 275.394531 286.269531 L 107.507812 303.3125 Z M 100.691406 236.15625 " clip-rule="nonzero"/></clipPath><clipPath id="d515c91c38"><path d="M 89.042969 121.40625 L 256.933594 104.367188 L 275.335938 285.683594 L 107.449219 302.722656 Z M 89.042969 121.40625 " clip-rule="nonzero"/></clipPath><clipPath id="b6c9431901"><path d="M 89.042969 121.40625 L 256.933594 104.367188 L 275.335938 285.683594 L 107.449219 302.722656 Z M 89.042969 121.40625 " clip-rule="nonzero"/></clipPath><clipPath id="902185af79"><path d="M 123 268 L 128 268 L 128 273 L 123 273 Z M 123 268 " clip-rule="nonzero"/></clipPath><clipPath id="6ef18ea7db"><path d="M 100.691406 236.15625 L 268.578125 219.117188 L 275.394531 286.269531 L 107.507812 303.3125 Z M 100.691406 236.15625 " clip-rule="nonzero"/></clipPath><clipPath id="91256a570f"><path d="M 89.042969 121.40625 L 256.933594 104.367188 L 275.335938 285.683594 L 107.449219 302.722656 Z M 89.042969 121.40625 " clip-rule="nonzero"/></clipPath><clipPath id="2f51360cbe"><path d="M 89.042969 121.40625 L 256.933594 104.367188 L 275.335938 285.683594 L 107.449219 302.722656 Z M 89.042969 121.40625 " clip-rule="nonzero"/></clipPath><clipPath id="a8454d3df0"><path d="M 106 238 L 110 238 L 110 243 L 106 243 Z M 106 238 " clip-rule="nonzero"/></clipPath><clipPath id="1ed92db43e"><path d="M 100.691406 236.15625 L 268.578125 219.117188 L 275.394531 286.269531 L 107.507812 303.3125 Z M 100.691406 236.15625 " clip-rule="nonzero"/></clipPath><clipPath id="f142230532"><path d="M 89.042969 121.40625 L 256.933594 104.367188 L 275.335938 285.683594 L 107.449219 302.722656 Z M 89.042969 121.40625 " clip-rule="nonzero"/></clipPath><clipPath id="c7366e095a"><path d="M 89.042969 121.40625 L 256.933594 104.367188 L 275.335938 285.683594 L 107.449219 302.722656 Z M 89.042969 121.40625 " clip-rule="nonzero"/></clipPath><clipPath id="485f200a2c"><path d="M 100 219 L 103 219 L 103 223 L 100 223 Z M 100 219 " clip-rule="nonzero"/></clipPath><clipPath id="76f668f789"><path d="M 100.691406 236.15625 L 268.578125 219.117188 L 275.394531 286.269531 L 107.507812 303.3125 Z M 100.691406 236.15625 " clip-rule="nonzero"/></clipPath><clipPath id="05e6fa729c"><path d="M 89.042969 121.40625 L 256.933594 104.367188 L 275.335938 285.683594 L 107.449219 302.722656 Z M 89.042969 121.40625 " clip-rule="nonzero"/></clipPath><clipPath id="b0623bdaf4"><path d="M 89.042969 121.40625 L 256.933594 104.367188 L 275.335938 285.683594 L 107.449219 302.722656 Z M 89.042969 121.40625 " clip-rule="nonzero"/></clipPath><clipPath id="6bdc34dff9"><path d="M 260 223 L 265 223 L 265 227 L 260 227 Z M 260 223 " clip-rule="nonzero"/></clipPath><clipPath id="4f44735140"><path d="M 100.691406 236.15625 L 268.578125 219.117188 L 275.394531 286.269531 L 107.507812 303.3125 Z M 100.691406 236.15625 " clip-rule="nonzero"/></clipPath><clipPath id="641651953d"><path d="M 89.042969 121.40625 L 256.933594 104.367188 L 275.335938 285.683594 L 107.449219 302.722656 Z M 89.042969 121.40625 " clip-rule="nonzero"/></clipPath><clipPath id="aa3af8cec1"><path d="M 89.042969 121.40625 L 256.933594 104.367188 L 275.335938 285.683594 L 107.449219 302.722656 Z M 89.042969 121.40625 " clip-rule="nonzero"/></clipPath><clipPath id="c412b8cccc"><path d="M 124 269 L 164 269 L 164 286 L 124 286 Z M 124 269 " clip-rule="nonzero"/></clipPath><clipPath id="024dd865af"><path d="M 100.691406 236.15625 L 268.578125 219.117188 L 275.394531 286.269531 L 107.507812 303.3125 Z M 100.691406 236.15625 " clip-rule="nonzero"/></clipPath><clipPath id="7a020a5e31"><path d="M 89.042969 121.40625 L 256.933594 104.367188 L 275.335938 285.683594 L 107.449219 302.722656 Z M 89.042969 121.40625 " clip-rule="nonzero"/></clipPath><clipPath id="5b0a9bab96"><path d="M 89.042969 121.40625 L 256.933594 104.367188 L 275.335938 285.683594 L 107.449219 302.722656 Z M 89.042969 121.40625 " clip-rule="nonzero"/></clipPath><clipPath id="a242d14918"><path d="M 172 280 L 214 280 L 214 296 L 172 296 Z M 172 280 " clip-rule="nonzero"/></clipPath><clipPath id="560eecc5d2"><path d="M 100.691406 236.15625 L 268.578125 219.117188 L 275.394531 286.269531 L 107.507812 303.3125 Z M 100.691406 236.15625 " clip-rule="nonzero"/></clipPath><clipPath id="1624c91e5b"><path d="M 89.042969 121.40625 L 256.933594 104.367188 L 275.335938 285.683594 L 107.449219 302.722656 Z M 89.042969 121.40625 " clip-rule="nonzero"/></clipPath><clipPath id="09c8aa449a"><path d="M 89.042969 121.40625 L 256.933594 104.367188 L 275.335938 285.683594 L 107.449219 302.722656 Z M 89.042969 121.40625 " clip-rule="nonzero"/></clipPath><clipPath id="43edca98eb"><path d="M 165 274 L 211 274 L 211 286 L 165 286 Z M 165 274 " clip-rule="nonzero"/></clipPath><clipPath id="fa07e36278"><path d="M 100.691406 236.15625 L 268.578125 219.117188 L 275.394531 286.269531 L 107.507812 303.3125 Z M 100.691406 236.15625 " clip-rule="nonzero"/></clipPath><clipPath id="47f4ed3f71"><path d="M 89.042969 121.40625 L 256.933594 104.367188 L 275.335938 285.683594 L 107.449219 302.722656 Z M 89.042969 121.40625 " clip-rule="nonzero"/></clipPath><clipPath id="4383fa9a51"><path d="M 89.042969 121.40625 L 256.933594 104.367188 L 275.335938 285.683594 L 107.449219 302.722656 Z M 89.042969 121.40625 " clip-rule="nonzero"/></clipPath><clipPath id="da36f68c23"><path d="M 164 288 L 169 288 L 169 292 L 164 292 Z M 164 288 " clip-rule="nonzero"/></clipPath><clipPath id="dfe7a051ab"><path d="M 100.691406 236.15625 L 268.578125 219.117188 L 275.394531 286.269531 L 107.507812 303.3125 Z M 100.691406 236.15625 " clip-rule="nonzero"/></clipPath><clipPath id="b2bb081a5d"><path d="M 89.042969 121.40625 L 256.933594 104.367188 L 275.335938 285.683594 L 107.449219 302.722656 Z M 89.042969 121.40625 " clip-rule="nonzero"/></clipPath><clipPath id="6afd426de5"><path d="M 89.042969 121.40625 L 256.933594 104.367188 L 275.335938 285.683594 L 107.449219 302.722656 Z M 89.042969 121.40625 " clip-rule="nonzero"/></clipPath><clipPath id="2593400a29"><path d="M 165 282 L 207 282 L 207 291 L 165 291 Z M 165 282 " clip-rule="nonzero"/></clipPath><clipPath id="52db479051"><path d="M 100.691406 236.15625 L 268.578125 219.117188 L 275.394531 286.269531 L 107.507812 303.3125 Z M 100.691406 236.15625 " clip-rule="nonzero"/></clipPath><clipPath id="440f1931dc"><path d="M 89.042969 121.40625 L 256.933594 104.367188 L 275.335938 285.683594 L 107.449219 302.722656 Z M 89.042969 121.40625 " clip-rule="nonzero"/></clipPath><clipPath id="ae9427843d"><path d="M 89.042969 121.40625 L 256.933594 104.367188 L 275.335938 285.683594 L 107.449219 302.722656 Z M 89.042969 121.40625 " clip-rule="nonzero"/></clipPath><clipPath id="7ff30da1ce"><path d="M 218 254 L 249 254 L 249 288 L 218 288 Z M 218 254 " clip-rule="nonzero"/></clipPath><clipPath id="b7154a6238"><path d="M 100.691406 236.15625 L 268.578125 219.117188 L 275.394531 286.269531 L 107.507812 303.3125 Z M 100.691406 236.15625 " clip-rule="nonzero"/></clipPath><clipPath id="93d3bcd82b"><path d="M 89.042969 121.40625 L 256.933594 104.367188 L 275.335938 285.683594 L 107.449219 302.722656 Z M 89.042969 121.40625 " clip-rule="nonzero"/></clipPath><clipPath id="6edc87c7a2"><path d="M 89.042969 121.40625 L 256.933594 104.367188 L 275.335938 285.683594 L 107.449219 302.722656 Z M 89.042969 121.40625 " clip-rule="nonzero"/></clipPath><clipPath id="d48368b15f"><path d="M 203 257 L 246 257 L 246 275 L 203 275 Z M 203 257 " clip-rule="nonzero"/></clipPath><clipPath id="1765907705"><path d="M 100.691406 236.15625 L 268.578125 219.117188 L 275.394531 286.269531 L 107.507812 303.3125 Z M 100.691406 236.15625 " clip-rule="nonzero"/></clipPath><clipPath id="8c5b589b59"><path d="M 89.042969 121.40625 L 256.933594 104.367188 L 275.335938 285.683594 L 107.449219 302.722656 Z M 89.042969 121.40625 " clip-rule="nonzero"/></clipPath><clipPath id="7ddfad6289"><path d="M 89.042969 121.40625 L 256.933594 104.367188 L 275.335938 285.683594 L 107.449219 302.722656 Z M 89.042969 121.40625 " clip-rule="nonzero"/></clipPath><clipPath id="3bdffe4130"><path d="M 209 284 L 214 284 L 214 288 L 209 288 Z M 209 284 " clip-rule="nonzero"/></clipPath><clipPath id="2befa785d5"><path d="M 100.691406 236.15625 L 268.578125 219.117188 L 275.394531 286.269531 L 107.507812 303.3125 Z M 100.691406 236.15625 " clip-rule="nonzero"/></clipPath><clipPath id="d1e69be494"><path d="M 89.042969 121.40625 L 256.933594 104.367188 L 275.335938 285.683594 L 107.449219 302.722656 Z M 89.042969 121.40625 " clip-rule="nonzero"/></clipPath><clipPath id="75202f88c8"><path d="M 89.042969 121.40625 L 256.933594 104.367188 L 275.335938 285.683594 L 107.449219 302.722656 Z M 89.042969 121.40625 " clip-rule="nonzero"/></clipPath><clipPath id="0f62ced9f4"><path d="M 210 260 L 243 260 L 243 288 L 210 288 Z M 210 260 " clip-rule="nonzero"/></clipPath><clipPath id="d66b2a8b62"><path d="M 100.691406 236.15625 L 268.578125 219.117188 L 275.394531 286.269531 L 107.507812 303.3125 Z M 100.691406 236.15625 " clip-rule="nonzero"/></clipPath><clipPath id="1a670c94c1"><path d="M 89.042969 121.40625 L 256.933594 104.367188 L 275.335938 285.683594 L 107.449219 302.722656 Z M 89.042969 121.40625 " clip-rule="nonzero"/></clipPath><clipPath id="499de9cdfa"><path d="M 89.042969 121.40625 L 256.933594 104.367188 L 275.335938 285.683594 L 107.449219 302.722656 Z M 89.042969 121.40625 " clip-rule="nonzero"/></clipPath></defs><g clip-path="url(#eaee52d8f0)"><g clip-path="url(#41ddad2166)"><g clip-path="url(#3c665a2467)"><g clip-path="url(#a5dfb93eb7)"><path fill="#000000" d="M 247.65625 153.660156 C 247.449219 153.679688 247.238281 153.597656 247.101562 153.425781 C 229.574219 131.0625 202.226562 119.425781 173.945312 122.296875 C 145.664062 125.167969 121.210938 142.0625 108.535156 167.488281 C 108.382812 167.796875 108.003906 167.921875 107.695312 167.769531 C 107.386719 167.617188 107.261719 167.242188 107.414062 166.933594 C 113.585938 154.554688 122.828125 143.800781 134.136719 135.835938 C 145.804688 127.617188 159.527344 122.507812 173.816406 121.058594 C 188.109375 119.605469 202.578125 121.855469 215.65625 127.5625 C 228.339844 133.09375 239.554688 141.769531 248.085938 152.65625 C 248.296875 152.925781 248.25 153.316406 247.976562 153.53125 C 247.878906 153.605469 247.769531 153.648438 247.65625 153.660156 Z M 247.65625 153.660156 " fill-opacity="1" fill-rule="nonzero"/></g></g></g></g><g clip-path="url(#bfed45259e)"><g clip-path="url(#2f11e249a1)"><g clip-path="url(#35ef0ad9c0)"><g clip-path="url(#b13fef662e)"><path fill="#000000" d="M 255.773438 162.1875 C 255.800781 162.433594 255.777344 162.675781 255.707031 162.914062 C 255.632812 163.152344 255.519531 163.367188 255.363281 163.558594 C 255.207031 163.75 255.015625 163.90625 254.796875 164.023438 C 254.578125 164.140625 254.347656 164.210938 254.097656 164.238281 C 253.851562 164.261719 253.609375 164.238281 253.371094 164.167969 C 253.132812 164.097656 252.917969 163.984375 252.726562 163.828125 C 252.53125 163.667969 252.378906 163.480469 252.257812 163.265625 C 252.140625 163.046875 252.070312 162.8125 252.046875 162.566406 C 252.019531 162.320312 252.042969 162.078125 252.113281 161.839844 C 252.1875 161.601562 252.300781 161.386719 252.457031 161.195312 C 252.617188 161.003906 252.804688 160.847656 253.023438 160.730469 C 253.242188 160.613281 253.472656 160.542969 253.722656 160.515625 C 253.96875 160.492188 254.210938 160.515625 254.449219 160.585938 C 254.6875 160.65625 254.902344 160.769531 255.09375 160.929688 C 255.289062 161.085938 255.445312 161.273438 255.5625 161.492188 C 255.679688 161.707031 255.75 161.941406 255.773438 162.1875 Z M 255.773438 162.1875 " fill-opacity="1" fill-rule="nonzero"/></g></g></g></g><g clip-path="url(#b17be4af23)"><g clip-path="url(#493ff14192)"><g clip-path="url(#9c96d57526)"><g clip-path="url(#3524632216)"><path fill="#000000" d="M 235.472656 131.277344 C 235.378906 131.289062 235.285156 131.277344 235.195312 131.246094 C 224.945312 127.546875 214.289062 124.839844 203.523438 123.199219 C 201.296875 122.859375 198.671875 122.507812 196.085938 122.476562 C 195.285156 122.464844 194.542969 122.480469 193.816406 122.53125 C 193.503906 122.550781 193.21875 122.332031 193.160156 122.019531 C 193.105469 121.707031 193.292969 121.402344 193.597656 121.3125 C 194.28125 121.105469 194.980469 120.914062 195.675781 120.742188 C 200.21875 119.625 204.902344 119.253906 209.59375 119.652344 C 218.734375 120.421875 228.039062 124.152344 235.792969 130.167969 C 236.035156 130.355469 236.105469 130.691406 235.957031 130.960938 C 235.851562 131.140625 235.671875 131.257812 235.472656 131.277344 Z M 198.792969 121.359375 C 200.527344 121.503906 202.207031 121.738281 203.710938 121.964844 C 213.117188 123.398438 222.445312 125.640625 231.488281 128.640625 C 224.714844 124.246094 217.039062 121.527344 209.480469 120.894531 C 205.894531 120.59375 202.308594 120.75 198.792969 121.359375 Z M 198.792969 121.359375 " fill-opacity="1" fill-rule="nonzero"/></g></g></g></g><g clip-path="url(#0b5eac33ac)"><g clip-path="url(#15b0c047f0)"><g clip-path="url(#5c8e5a6a10)"><g clip-path="url(#6457d40ed9)"><path fill="#000000" d="M 231.601562 150.507812 C 231.40625 150.527344 231.210938 150.457031 231.074219 150.304688 C 223.75 142.269531 215.597656 134.914062 206.835938 128.445312 C 204.320312 126.589844 201.589844 124.691406 198.628906 123.363281 C 198.367188 123.3125 198.101562 123.265625 197.839844 123.21875 C 197.496094 123.164062 197.269531 122.839844 197.328125 122.5 C 197.382812 122.160156 197.707031 121.933594 198.046875 121.992188 C 198.339844 122.042969 198.632812 122.09375 198.925781 122.152344 C 198.933594 122.152344 198.941406 122.152344 198.953125 122.15625 C 204.175781 123.171875 209.328125 125.234375 213.855469 128.132812 C 221.582031 133.070312 228.0625 140.703125 232.105469 149.632812 C 232.230469 149.910156 232.136719 150.238281 231.878906 150.40625 C 231.792969 150.464844 231.699219 150.496094 231.601562 150.507812 Z M 203.527344 124.625 C 204.941406 125.527344 206.289062 126.488281 207.578125 127.445312 C 215.234375 133.097656 222.429688 139.421875 229.019531 146.28125 C 225.085938 139.242188 219.570312 133.261719 213.183594 129.179688 C 210.1875 127.265625 206.914062 125.722656 203.527344 124.625 Z M 203.527344 124.625 " fill-opacity="1" fill-rule="nonzero"/></g></g></g></g><g clip-path="url(#24ac625b4d)"><g clip-path="url(#017f651c9f)"><g clip-path="url(#ca1e7eb0cd)"><g clip-path="url(#d153bca5a8)"><path fill="#000000" d="M 240.648438 137.066406 C 240.671875 137.3125 240.648438 137.554688 240.578125 137.792969 C 240.507812 138.027344 240.390625 138.242188 240.234375 138.4375 C 240.078125 138.628906 239.890625 138.78125 239.671875 138.902344 C 239.453125 139.019531 239.21875 139.089844 238.972656 139.113281 C 238.722656 139.140625 238.480469 139.117188 238.242188 139.046875 C 238.003906 138.972656 237.789062 138.859375 237.597656 138.703125 C 237.40625 138.546875 237.25 138.359375 237.132812 138.140625 C 237.015625 137.921875 236.941406 137.691406 236.917969 137.445312 C 236.894531 137.195312 236.914062 136.953125 236.988281 136.71875 C 237.058594 136.480469 237.171875 136.265625 237.332031 136.074219 C 237.488281 135.878906 237.675781 135.726562 237.894531 135.609375 C 238.113281 135.492188 238.347656 135.417969 238.59375 135.394531 C 238.839844 135.367188 239.082031 135.390625 239.320312 135.464844 C 239.558594 135.535156 239.773438 135.648438 239.96875 135.804688 C 240.160156 135.960938 240.316406 136.148438 240.433594 136.367188 C 240.550781 136.585938 240.621094 136.816406 240.648438 137.066406 Z M 240.648438 137.066406 " fill-opacity="1" fill-rule="nonzero"/></g></g></g></g><g clip-path="url(#05b829f992)"><g clip-path="url(#c6ec01a703)"><g clip-path="url(#3bae5acc2c)"><g clip-path="url(#aaaf2bb0b7)"><path fill="#000000" d="M 239.375 138.109375 C 239.257812 138.121094 239.132812 138.101562 239.019531 138.039062 C 238.8125 137.929688 217.925781 126.910156 201.71875 124.078125 C 201.378906 124.019531 201.152344 123.695312 201.214844 123.359375 C 201.273438 123.019531 201.597656 122.792969 201.9375 122.851562 C 218.339844 125.71875 239.398438 136.828125 239.605469 136.941406 C 239.914062 137.101562 240.027344 137.480469 239.863281 137.785156 C 239.765625 137.976562 239.578125 138.089844 239.375 138.109375 Z M 239.375 138.109375 " fill-opacity="1" fill-rule="nonzero"/></g></g></g></g><g clip-path="url(#c8bd0db8f4)"><g clip-path="url(#7ce6f36f8a)"><g clip-path="url(#095b700d8b)"><g clip-path="url(#95db54389c)"><path fill="#000000" d="M 151.175781 127.78125 C 150.976562 127.800781 150.773438 127.726562 150.636719 127.5625 C 150.433594 127.320312 150.441406 126.964844 150.65625 126.734375 C 151.148438 126.214844 151.65625 125.699219 152.175781 125.207031 C 155.550781 121.972656 159.421875 119.316406 163.683594 117.324219 C 171.984375 113.425781 181.917969 112.015625 191.648438 113.355469 C 191.953125 113.398438 192.183594 113.65625 192.1875 113.960938 C 192.195312 114.269531 191.976562 114.535156 191.671875 114.589844 C 180.941406 116.5 170.351562 119.472656 160.203125 123.421875 C 158.105469 124.238281 155.65625 125.242188 153.398438 126.503906 C 152.699219 126.894531 152.0625 127.28125 151.460938 127.683594 C 151.375 127.738281 151.277344 127.769531 151.175781 127.78125 Z M 179.285156 114.367188 C 173.960938 114.90625 168.824219 116.28125 164.210938 118.449219 C 160.949219 119.976562 157.925781 121.902344 155.183594 124.1875 C 156.757812 123.445312 158.332031 122.808594 159.746094 122.257812 C 168.617188 118.804688 177.820312 116.09375 187.160156 114.179688 C 184.515625 114.039062 181.878906 114.105469 179.285156 114.367188 Z M 179.285156 114.367188 " fill-opacity="1" fill-rule="nonzero"/></g></g></g></g><g clip-path="url(#edaba8fdaa)"><g clip-path="url(#4f022dc08f)"><g clip-path="url(#ecf8790072)"><g clip-path="url(#10789cba39)"><path fill="#000000" d="M 197.910156 133.171875 C 197.828125 133.179688 197.742188 133.171875 197.65625 133.144531 C 187.28125 129.839844 176.53125 127.539062 165.699219 126.308594 C 162.59375 125.957031 159.273438 125.675781 156.046875 126.003906 C 155.792969 126.089844 155.539062 126.179688 155.289062 126.269531 C 154.96875 126.390625 154.605469 126.226562 154.488281 125.902344 C 154.367188 125.582031 154.53125 125.222656 154.855469 125.101562 C 155.132812 125 155.414062 124.898438 155.695312 124.804688 C 155.703125 124.800781 155.710938 124.796875 155.71875 124.792969 C 160.75 123.066406 166.253906 122.285156 171.628906 122.53125 C 180.792969 122.953125 190.234375 126.332031 198.210938 132.042969 C 198.460938 132.222656 198.542969 132.554688 198.402344 132.828125 C 198.308594 133.027344 198.117188 133.148438 197.910156 133.171875 Z M 160.921875 124.652344 C 162.597656 124.726562 164.246094 124.886719 165.84375 125.066406 C 175.308594 126.144531 184.710938 128.03125 193.859375 130.683594 C 186.921875 126.550781 179.148438 124.125 171.570312 123.773438 C 168.015625 123.613281 164.40625 123.914062 160.921875 124.652344 Z M 160.921875 124.652344 " fill-opacity="1" fill-rule="nonzero"/></g></g></g></g><g clip-path="url(#a81a4fde97)"><g clip-path="url(#e7e292c129)"><g clip-path="url(#fd5ab0208e)"><g clip-path="url(#6cd931a20d)"><path fill="#000000" d="M 199.65625 117.808594 C 199.683594 118.054688 199.660156 118.296875 199.585938 118.535156 C 199.515625 118.773438 199.402344 118.988281 199.246094 119.179688 C 199.085938 119.371094 198.898438 119.527344 198.679688 119.644531 C 198.460938 119.761719 198.226562 119.832031 197.980469 119.859375 C 197.734375 119.882812 197.492188 119.859375 197.253906 119.789062 C 197.015625 119.71875 196.800781 119.605469 196.605469 119.445312 C 196.414062 119.289062 196.257812 119.101562 196.140625 118.882812 C 196.023438 118.664062 195.953125 118.433594 195.925781 118.1875 C 195.902344 117.941406 195.925781 117.699219 195.996094 117.460938 C 196.070312 117.222656 196.183594 117.007812 196.339844 116.816406 C 196.496094 116.625 196.683594 116.46875 196.902344 116.351562 C 197.125 116.234375 197.355469 116.164062 197.601562 116.136719 C 197.851562 116.113281 198.09375 116.136719 198.332031 116.207031 C 198.570312 116.277344 198.785156 116.390625 198.976562 116.546875 C 199.171875 116.703125 199.324219 116.890625 199.441406 117.109375 C 199.5625 117.328125 199.632812 117.5625 199.65625 117.808594 Z M 199.65625 117.808594 " fill-opacity="1" fill-rule="nonzero"/></g></g></g></g><g clip-path="url(#e5d3b19211)"><g clip-path="url(#b37274d408)"><g clip-path="url(#25fd566e5e)"><g clip-path="url(#43f8508201)"><path fill="#000000" d="M 158.933594 125.113281 C 158.65625 125.140625 158.382812 124.980469 158.28125 124.707031 C 158.164062 124.382812 158.332031 124.027344 158.65625 123.90625 C 174.300781 118.207031 198.109375 117.324219 198.347656 117.316406 C 198.691406 117.300781 198.980469 117.570312 198.992188 117.914062 C 199.003906 118.257812 198.734375 118.546875 198.390625 118.558594 C 198.15625 118.566406 174.539062 119.441406 159.082031 125.074219 C 159.035156 125.097656 158.984375 125.109375 158.933594 125.113281 Z M 158.933594 125.113281 " fill-opacity="1" fill-rule="nonzero"/></g></g></g></g><g clip-path="url(#16bd67b982)"><g clip-path="url(#463b2c2378)"><g clip-path="url(#e5dd727005)"><g clip-path="url(#219b5e588a)"><path fill="#000000" d="M 116.851562 153.609375 C 116.761719 153.617188 116.667969 153.609375 116.578125 153.574219 C 116.277344 153.46875 116.109375 153.15625 116.179688 152.847656 C 116.339844 152.152344 116.527344 151.453125 116.726562 150.769531 C 118.027344 146.285156 120.050781 142.054688 122.742188 138.203125 C 127.984375 130.6875 135.882812 124.511719 144.980469 120.816406 C 145.265625 120.699219 145.589844 120.808594 145.75 121.070312 C 145.910156 121.332031 145.855469 121.671875 145.621094 121.871094 C 137.28125 128.878906 129.597656 136.734375 122.785156 145.214844 C 121.375 146.972656 119.757812 149.0625 118.433594 151.277344 C 118.023438 151.964844 117.667969 152.613281 117.347656 153.265625 C 117.25 153.460938 117.0625 153.585938 116.851562 153.609375 Z M 141.507812 123.769531 C 134.304688 127.429688 128.101562 132.699219 123.773438 138.910156 C 121.710938 141.863281 120.054688 145.039062 118.828125 148.382812 C 119.820312 146.953125 120.863281 145.621094 121.816406 144.4375 C 127.765625 137.023438 134.378906 130.085938 141.507812 123.769531 Z M 141.507812 123.769531 " fill-opacity="1" fill-rule="nonzero"/></g></g></g></g><g clip-path="url(#a0bf15cf01)"><g clip-path="url(#3f92b8a6b1)"><g clip-path="url(#56dff43852)"><g clip-path="url(#07c306e68d)"><path fill="#000000" d="M 119.542969 150.355469 C 119.386719 150.375 119.21875 150.328125 119.082031 150.21875 C 118.816406 150 118.78125 149.605469 119 149.339844 C 119.191406 149.113281 119.382812 148.886719 119.578125 148.660156 C 119.582031 148.65625 119.589844 148.648438 119.59375 148.644531 C 123.085938 144.636719 127.460938 141.214844 132.242188 138.75 C 140.390625 134.542969 150.265625 132.757812 160.035156 133.726562 C 160.34375 133.753906 160.582031 134.003906 160.597656 134.308594 C 160.617188 134.613281 160.40625 134.886719 160.105469 134.953125 C 149.464844 137.269531 138.996094 140.640625 129 144.976562 C 126.128906 146.21875 123.113281 147.632812 120.480469 149.527344 C 120.304688 149.726562 120.132812 149.933594 119.960938 150.136719 C 119.855469 150.265625 119.703125 150.339844 119.542969 150.355469 Z M 149.632812 134.972656 C 143.648438 135.582031 137.886719 137.234375 132.816406 139.855469 C 129.652344 141.484375 126.675781 143.546875 124.027344 145.921875 C 125.515625 145.148438 127.027344 144.46875 128.5 143.828125 C 137.238281 140.039062 146.332031 136.980469 155.582031 134.714844 C 153.585938 134.6875 151.597656 134.773438 149.632812 134.972656 Z M 149.632812 134.972656 " fill-opacity="1" fill-rule="nonzero"/></g></g></g></g><g clip-path="url(#a406d04dff)"><g clip-path="url(#be7cb1a7d1)"><g clip-path="url(#12279f0494)"><g clip-path="url(#d960b6bb94)"><path fill="#000000" d="M 154.496094 121.582031 C 154.523438 121.832031 154.5 122.074219 154.429688 122.308594 C 154.355469 122.546875 154.242188 122.761719 154.085938 122.953125 C 153.929688 123.148438 153.738281 123.300781 153.519531 123.417969 C 153.300781 123.535156 153.070312 123.609375 152.820312 123.632812 C 152.574219 123.660156 152.332031 123.636719 152.09375 123.5625 C 151.855469 123.492188 151.640625 123.378906 151.449219 123.222656 C 151.253906 123.066406 151.101562 122.878906 150.980469 122.660156 C 150.863281 122.441406 150.792969 122.207031 150.769531 121.960938 C 150.742188 121.714844 150.765625 121.472656 150.835938 121.234375 C 150.910156 121 151.023438 120.785156 151.179688 120.589844 C 151.339844 120.398438 151.527344 120.246094 151.746094 120.125 C 151.964844 120.007812 152.195312 119.9375 152.445312 119.914062 C 152.691406 119.886719 152.933594 119.910156 153.171875 119.980469 C 153.410156 120.054688 153.625 120.167969 153.816406 120.324219 C 154.011719 120.480469 154.167969 120.667969 154.285156 120.886719 C 154.402344 121.105469 154.472656 121.335938 154.496094 121.582031 Z M 154.496094 121.582031 " fill-opacity="1" fill-rule="nonzero"/></g></g></g></g><g clip-path="url(#839448f5be)"><g clip-path="url(#6bf346dd27)"><g clip-path="url(#6519e54a89)"><g clip-path="url(#0100e9ac83)"><path fill="#000000" d="M 122.234375 147.433594 C 122.074219 147.449219 121.90625 147.402344 121.769531 147.289062 C 121.503906 147.066406 121.472656 146.675781 121.691406 146.410156 C 132.386719 133.671875 152.574219 121.03125 152.773438 120.90625 C 153.066406 120.722656 153.449219 120.8125 153.636719 121.101562 C 153.820312 121.394531 153.730469 121.777344 153.433594 121.964844 C 153.234375 122.085938 133.214844 134.625 122.652344 147.210938 C 122.542969 147.339844 122.390625 147.414062 122.234375 147.433594 Z M 122.234375 147.433594 " fill-opacity="1" fill-rule="nonzero"/></g></g></g></g><g fill="#000000" fill-opacity="0.302"><g transform="translate(165.769072, 235.119131)"><g><path d="M 56.765625 -4.5625 C 57.035156 -4.375 57.175781 -4.15625 57.1875 -3.90625 C 57.207031 -3.664062 57.175781 -3.429688 57.09375 -3.203125 C 57.101562 -3.160156 57.109375 -3.140625 57.109375 -3.140625 C 56.597656 -0.972656 55.5625 0.769531 54 2.09375 C 52.445312 3.425781 50.445312 4.210938 48 4.453125 C 45.632812 4.609375 43.671875 4.101562 42.109375 2.9375 C 40.546875 1.769531 39.460938 0.0195312 38.859375 -2.3125 C 38.578125 -3.445312 38.425781 -4.597656 38.40625 -5.765625 C 38.394531 -6.941406 38.425781 -8.117188 38.5 -9.296875 C 38.550781 -10.046875 38.609375 -10.789062 38.671875 -11.53125 C 38.785156 -12.75 38.863281 -13.984375 38.90625 -15.234375 C 38.914062 -17.179688 38.484375 -18.457031 37.609375 -19.0625 C 36.742188 -19.675781 35.617188 -19.890625 34.234375 -19.703125 C 32.847656 -19.515625 31.46875 -19.207031 30.09375 -18.78125 C 29.3125 -18.5625 28.585938 -18.382812 27.921875 -18.25 C 27.660156 -18.207031 27.46875 -18.097656 27.34375 -17.921875 C 27.21875 -17.742188 27.109375 -17.554688 27.015625 -17.359375 C 26.523438 -15.960938 26.054688 -14.566406 25.609375 -13.171875 C 21.359375 -0.304688 16.535156 12.328125 11.140625 24.734375 C 10.285156 26.617188 9.40625 28.5 8.5 30.375 C 8.289062 30.8125 8.046875 31.21875 7.765625 31.59375 C 7.484375 31.96875 7.117188 32.269531 6.671875 32.5 C 5.828125 32.90625 5.113281 32.96875 4.53125 32.6875 C 3.957031 32.40625 3.613281 31.796875 3.5 30.859375 C 3.363281 29.753906 3.332031 28.628906 3.40625 27.484375 C 3.875 20.554688 4.960938 14.507812 6.671875 9.34375 C 8.390625 4.175781 10.703125 -0.617188 13.609375 -5.046875 C 16.515625 -9.484375 19.972656 -14.050781 23.984375 -18.75 C 24.609375 -19.457031 25.066406 -20.28125 25.359375 -21.21875 C 25.773438 -22.507812 26.191406 -23.796875 26.609375 -25.078125 C 28.140625 -29.847656 29.632812 -34.617188 31.09375 -39.390625 C 32.5625 -44.171875 33.890625 -48.988281 35.078125 -53.84375 C 36.265625 -58.675781 36.695312 -62.210938 36.375 -64.453125 C 36.0625 -66.691406 34.832031 -67.695312 32.6875 -67.46875 C 30.539062 -67.238281 27.34375 -65.816406 23.09375 -63.203125 C 18.914062 -60.660156 14.875 -57.914062 10.96875 -54.96875 C 7.0625 -52.03125 3.238281 -48.953125 -0.5 -45.734375 C -1.894531 -44.566406 -3.609375 -43.03125 -5.640625 -41.125 C -7.671875 -39.226562 -9.648438 -37.222656 -11.578125 -35.109375 C -13.503906 -32.992188 -15.050781 -30.992188 -16.21875 -29.109375 C -17.050781 -27.660156 -17.164062 -26.753906 -16.5625 -26.390625 C -15.957031 -26.023438 -14.851562 -25.945312 -13.25 -26.15625 C -12.476562 -26.25 -11.171875 -26.457031 -9.328125 -26.78125 C -7.492188 -27.113281 -5.457031 -27.554688 -3.21875 -28.109375 C -1.96875 -28.421875 -0.75 -28.726562 0.4375 -29.03125 C 2.226562 -29.519531 3.765625 -29.90625 5.046875 -30.1875 C 6.335938 -30.46875 7.125 -30.519531 7.40625 -30.34375 C 7.53125 -30.125 6.671875 -29.710938 4.828125 -29.109375 C 2.992188 -28.515625 0.71875 -27.863281 -2 -27.15625 C -4.71875 -26.457031 -7.367188 -25.863281 -9.953125 -25.375 C -12.535156 -24.882812 -14.515625 -24.648438 -15.890625 -24.671875 C -18.296875 -24.765625 -19.503906 -25.484375 -19.515625 -26.828125 C -19.535156 -28.179688 -18.6875 -29.957031 -16.96875 -32.15625 C -15.25 -34.363281 -12.988281 -36.773438 -10.1875 -39.390625 C -7.394531 -42.015625 -4.367188 -44.675781 -1.109375 -47.375 C 2.140625 -50.070312 5.300781 -52.597656 8.375 -54.953125 C 11.445312 -57.304688 14.101562 -59.28125 16.34375 -60.875 C 18.582031 -62.46875 20.101562 -63.515625 20.90625 -64.015625 C 24.175781 -66.035156 27.097656 -67.523438 29.671875 -68.484375 C 32.253906 -69.441406 34.363281 -69.660156 36 -69.140625 C 37.632812 -68.628906 38.660156 -67.191406 39.078125 -64.828125 C 39.492188 -62.472656 39.171875 -58.992188 38.109375 -54.390625 C 37.242188 -50.734375 36.273438 -47.085938 35.203125 -43.453125 C 34.140625 -39.828125 33.050781 -36.21875 31.9375 -32.625 C 31.5 -31.226562 31.050781 -29.796875 30.59375 -28.328125 C 30.351562 -27.535156 30.082031 -26.679688 29.78125 -25.765625 C 30.257812 -25.984375 30.632812 -26.210938 30.90625 -26.453125 C 31.1875 -26.703125 31.429688 -26.953125 31.640625 -27.203125 C 31.734375 -27.296875 31.847656 -27.398438 31.984375 -27.515625 C 37.140625 -32.828125 42.832031 -38.257812 49.0625 -43.8125 C 55.300781 -49.375 61.945312 -54.703125 69 -59.796875 C 76.0625 -64.890625 83.394531 -69.375 91 -73.25 C 98.613281 -77.125 106.378906 -80.035156 114.296875 -81.984375 C 122.210938 -83.941406 130.160156 -84.570312 138.140625 -83.875 C 138.234375 -83.863281 138.332031 -83.800781 138.4375 -83.6875 C 138.539062 -83.570312 138.601562 -83.460938 138.625 -83.359375 C 138.644531 -83.179688 138.601562 -83.03125 138.5 -82.90625 C 138.394531 -82.78125 138.234375 -82.703125 138.015625 -82.671875 C 137.867188 -82.597656 137.707031 -82.585938 137.53125 -82.640625 C 130.875 -83.203125 124.164062 -82.710938 117.40625 -81.171875 C 110.65625 -79.628906 103.9375 -77.300781 97.25 -74.1875 C 90.5625 -71.082031 84.035156 -67.4375 77.671875 -63.25 C 71.304688 -59.070312 65.210938 -54.625 59.390625 -49.90625 C 53.566406 -45.195312 48.140625 -40.457031 43.109375 -35.6875 C 38.085938 -30.925781 33.578125 -26.398438 29.578125 -22.109375 C 29.554688 -22.078125 29.546875 -22.0625 29.546875 -22.0625 C 29.234375 -21.757812 28.9375 -21.4375 28.65625 -21.09375 C 28.382812 -20.75 28.28125 -20.472656 28.34375 -20.265625 C 28.40625 -20.066406 28.796875 -20.035156 29.515625 -20.171875 C 29.710938 -20.210938 29.914062 -20.25 30.125 -20.28125 C 31.40625 -20.625 32.757812 -20.894531 34.1875 -21.09375 C 35.613281 -21.289062 36.957031 -21.269531 38.21875 -21.03125 C 40.050781 -20.613281 41.125 -19.492188 41.4375 -17.671875 C 41.550781 -16.816406 41.585938 -15.960938 41.546875 -15.109375 C 41.472656 -13.691406 41.390625 -12.285156 41.296875 -10.890625 C 41.234375 -9.347656 41.171875 -7.800781 41.109375 -6.25 C 41.023438 -4.414062 41.382812 -2.660156 42.1875 -0.984375 C 42.945312 0.460938 43.925781 1.515625 45.125 2.171875 C 46.332031 2.835938 47.613281 3.078125 48.96875 2.890625 C 50.332031 2.703125 51.617188 2.050781 52.828125 0.9375 C 53.722656 0.09375 54.390625 -0.90625 54.828125 -2.0625 C 54.910156 -2.332031 54.984375 -2.59375 55.046875 -2.84375 C 55.085938 -3.09375 55.15625 -3.332031 55.25 -3.5625 C 55.414062 -3.988281 55.640625 -4.289062 55.921875 -4.46875 C 56.210938 -4.65625 56.492188 -4.6875 56.765625 -4.5625 Z M 22.078125 -11.375 C 22.109375 -11.4375 22.144531 -11.523438 22.1875 -11.640625 C 22.257812 -11.847656 22.351562 -12.113281 22.46875 -12.4375 C 22.59375 -12.769531 22.675781 -13.078125 22.71875 -13.359375 C 22.757812 -13.640625 22.734375 -13.800781 22.640625 -13.84375 C 22.554688 -13.882812 22.359375 -13.726562 22.046875 -13.375 C 16.859375 -7.644531 13.046875 -1.550781 10.609375 4.90625 C 8.171875 11.375 6.738281 18.554688 6.3125 26.453125 C 6.28125 27.140625 6.332031 27.507812 6.46875 27.5625 C 6.601562 27.625 6.78125 27.492188 7 27.171875 C 7.226562 26.847656 7.429688 26.484375 7.609375 26.078125 C 7.796875 25.671875 7.9375 25.378906 8.03125 25.203125 C 10.625 19.191406 13.09375 13.144531 15.4375 7.0625 C 17.789062 0.976562 20.003906 -5.164062 22.078125 -11.375 Z M 22.078125 -11.375 "/></g></g></g><g fill="#000000" fill-opacity="0.502"><g transform="translate(163.641123, 233.609817)"><g><path d="M 56.765625 -4.5625 C 57.035156 -4.375 57.175781 -4.15625 57.1875 -3.90625 C 57.207031 -3.664062 57.175781 -3.429688 57.09375 -3.203125 C 57.101562 -3.160156 57.109375 -3.140625 57.109375 -3.140625 C 56.597656 -0.972656 55.5625 0.769531 54 2.09375 C 52.445312 3.425781 50.445312 4.210938 48 4.453125 C 45.632812 4.609375 43.671875 4.101562 42.109375 2.9375 C 40.546875 1.769531 39.460938 0.0195312 38.859375 -2.3125 C 38.578125 -3.445312 38.425781 -4.597656 38.40625 -5.765625 C 38.394531 -6.941406 38.425781 -8.117188 38.5 -9.296875 C 38.550781 -10.046875 38.609375 -10.789062 38.671875 -11.53125 C 38.785156 -12.75 38.863281 -13.984375 38.90625 -15.234375 C 38.914062 -17.179688 38.484375 -18.457031 37.609375 -19.0625 C 36.742188 -19.675781 35.617188 -19.890625 34.234375 -19.703125 C 32.847656 -19.515625 31.46875 -19.207031 30.09375 -18.78125 C 29.3125 -18.5625 28.585938 -18.382812 27.921875 -18.25 C 27.660156 -18.207031 27.46875 -18.097656 27.34375 -17.921875 C 27.21875 -17.742188 27.109375 -17.554688 27.015625 -17.359375 C 26.523438 -15.960938 26.054688 -14.566406 25.609375 -13.171875 C 21.359375 -0.304688 16.535156 12.328125 11.140625 24.734375 C 10.285156 26.617188 9.40625 28.5 8.5 30.375 C 8.289062 30.8125 8.046875 31.21875 7.765625 31.59375 C 7.484375 31.96875 7.117188 32.269531 6.671875 32.5 C 5.828125 32.90625 5.113281 32.96875 4.53125 32.6875 C 3.957031 32.40625 3.613281 31.796875 3.5 30.859375 C 3.363281 29.753906 3.332031 28.628906 3.40625 27.484375 C 3.875 20.554688 4.960938 14.507812 6.671875 9.34375 C 8.390625 4.175781 10.703125 -0.617188 13.609375 -5.046875 C 16.515625 -9.484375 19.972656 -14.050781 23.984375 -18.75 C 24.609375 -19.457031 25.066406 -20.28125 25.359375 -21.21875 C 25.773438 -22.507812 26.191406 -23.796875 26.609375 -25.078125 C 28.140625 -29.847656 29.632812 -34.617188 31.09375 -39.390625 C 32.5625 -44.171875 33.890625 -48.988281 35.078125 -53.84375 C 36.265625 -58.675781 36.695312 -62.210938 36.375 -64.453125 C 36.0625 -66.691406 34.832031 -67.695312 32.6875 -67.46875 C 30.539062 -67.238281 27.34375 -65.816406 23.09375 -63.203125 C 18.914062 -60.660156 14.875 -57.914062 10.96875 -54.96875 C 7.0625 -52.03125 3.238281 -48.953125 -0.5 -45.734375 C -1.894531 -44.566406 -3.609375 -43.03125 -5.640625 -41.125 C -7.671875 -39.226562 -9.648438 -37.222656 -11.578125 -35.109375 C -13.503906 -32.992188 -15.050781 -30.992188 -16.21875 -29.109375 C -17.050781 -27.660156 -17.164062 -26.753906 -16.5625 -26.390625 C -15.957031 -26.023438 -14.851562 -25.945312 -13.25 -26.15625 C -12.476562 -26.25 -11.171875 -26.457031 -9.328125 -26.78125 C -7.492188 -27.113281 -5.457031 -27.554688 -3.21875 -28.109375 C -1.96875 -28.421875 -0.75 -28.726562 0.4375 -29.03125 C 2.226562 -29.519531 3.765625 -29.90625 5.046875 -30.1875 C 6.335938 -30.46875 7.125 -30.519531 7.40625 -30.34375 C 7.53125 -30.125 6.671875 -29.710938 4.828125 -29.109375 C 2.992188 -28.515625 0.71875 -27.863281 -2 -27.15625 C -4.71875 -26.457031 -7.367188 -25.863281 -9.953125 -25.375 C -12.535156 -24.882812 -14.515625 -24.648438 -15.890625 -24.671875 C -18.296875 -24.765625 -19.503906 -25.484375 -19.515625 -26.828125 C -19.535156 -28.179688 -18.6875 -29.957031 -16.96875 -32.15625 C -15.25 -34.363281 -12.988281 -36.773438 -10.1875 -39.390625 C -7.394531 -42.015625 -4.367188 -44.675781 -1.109375 -47.375 C 2.140625 -50.070312 5.300781 -52.597656 8.375 -54.953125 C 11.445312 -57.304688 14.101562 -59.28125 16.34375 -60.875 C 18.582031 -62.46875 20.101562 -63.515625 20.90625 -64.015625 C 24.175781 -66.035156 27.097656 -67.523438 29.671875 -68.484375 C 32.253906 -69.441406 34.363281 -69.660156 36 -69.140625 C 37.632812 -68.628906 38.660156 -67.191406 39.078125 -64.828125 C 39.492188 -62.472656 39.171875 -58.992188 38.109375 -54.390625 C 37.242188 -50.734375 36.273438 -47.085938 35.203125 -43.453125 C 34.140625 -39.828125 33.050781 -36.21875 31.9375 -32.625 C 31.5 -31.226562 31.050781 -29.796875 30.59375 -28.328125 C 30.351562 -27.535156 30.082031 -26.679688 29.78125 -25.765625 C 30.257812 -25.984375 30.632812 -26.210938 30.90625 -26.453125 C 31.1875 -26.703125 31.429688 -26.953125 31.640625 -27.203125 C 31.734375 -27.296875 31.847656 -27.398438 31.984375 -27.515625 C 37.140625 -32.828125 42.832031 -38.257812 49.0625 -43.8125 C 55.300781 -49.375 61.945312 -54.703125 69 -59.796875 C 76.0625 -64.890625 83.394531 -69.375 91 -73.25 C 98.613281 -77.125 106.378906 -80.035156 114.296875 -81.984375 C 122.210938 -83.941406 130.160156 -84.570312 138.140625 -83.875 C 138.234375 -83.863281 138.332031 -83.800781 138.4375 -83.6875 C 138.539062 -83.570312 138.601562 -83.460938 138.625 -83.359375 C 138.644531 -83.179688 138.601562 -83.03125 138.5 -82.90625 C 138.394531 -82.78125 138.234375 -82.703125 138.015625 -82.671875 C 137.867188 -82.597656 137.707031 -82.585938 137.53125 -82.640625 C 130.875 -83.203125 124.164062 -82.710938 117.40625 -81.171875 C 110.65625 -79.628906 103.9375 -77.300781 97.25 -74.1875 C 90.5625 -71.082031 84.035156 -67.4375 77.671875 -63.25 C 71.304688 -59.070312 65.210938 -54.625 59.390625 -49.90625 C 53.566406 -45.195312 48.140625 -40.457031 43.109375 -35.6875 C 38.085938 -30.925781 33.578125 -26.398438 29.578125 -22.109375 C 29.554688 -22.078125 29.546875 -22.0625 29.546875 -22.0625 C 29.234375 -21.757812 28.9375 -21.4375 28.65625 -21.09375 C 28.382812 -20.75 28.28125 -20.472656 28.34375 -20.265625 C 28.40625 -20.066406 28.796875 -20.035156 29.515625 -20.171875 C 29.710938 -20.210938 29.914062 -20.25 30.125 -20.28125 C 31.40625 -20.625 32.757812 -20.894531 34.1875 -21.09375 C 35.613281 -21.289062 36.957031 -21.269531 38.21875 -21.03125 C 40.050781 -20.613281 41.125 -19.492188 41.4375 -17.671875 C 41.550781 -16.816406 41.585938 -15.960938 41.546875 -15.109375 C 41.472656 -13.691406 41.390625 -12.285156 41.296875 -10.890625 C 41.234375 -9.347656 41.171875 -7.800781 41.109375 -6.25 C 41.023438 -4.414062 41.382812 -2.660156 42.1875 -0.984375 C 42.945312 0.460938 43.925781 1.515625 45.125 2.171875 C 46.332031 2.835938 47.613281 3.078125 48.96875 2.890625 C 50.332031 2.703125 51.617188 2.050781 52.828125 0.9375 C 53.722656 0.09375 54.390625 -0.90625 54.828125 -2.0625 C 54.910156 -2.332031 54.984375 -2.59375 55.046875 -2.84375 C 55.085938 -3.09375 55.15625 -3.332031 55.25 -3.5625 C 55.414062 -3.988281 55.640625 -4.289062 55.921875 -4.46875 C 56.210938 -4.65625 56.492188 -4.6875 56.765625 -4.5625 Z M 22.078125 -11.375 C 22.109375 -11.4375 22.144531 -11.523438 22.1875 -11.640625 C 22.257812 -11.847656 22.351562 -12.113281 22.46875 -12.4375 C 22.59375 -12.769531 22.675781 -13.078125 22.71875 -13.359375 C 22.757812 -13.640625 22.734375 -13.800781 22.640625 -13.84375 C 22.554688 -13.882812 22.359375 -13.726562 22.046875 -13.375 C 16.859375 -7.644531 13.046875 -1.550781 10.609375 4.90625 C 8.171875 11.375 6.738281 18.554688 6.3125 26.453125 C 6.28125 27.140625 6.332031 27.507812 6.46875 27.5625 C 6.601562 27.625 6.78125 27.492188 7 27.171875 C 7.226562 26.847656 7.429688 26.484375 7.609375 26.078125 C 7.796875 25.671875 7.9375 25.378906 8.03125 25.203125 C 10.625 19.191406 13.09375 13.144531 15.4375 7.0625 C 17.789062 0.976562 20.003906 -5.164062 22.078125 -11.375 Z M 22.078125 -11.375 "/></g></g></g><g fill="#000000" fill-opacity="1"><g transform="translate(161.513174, 232.1005)"><g><path d="M 56.765625 -4.5625 C 57.035156 -4.375 57.175781 -4.15625 57.1875 -3.90625 C 57.207031 -3.664062 57.175781 -3.429688 57.09375 -3.203125 C 57.101562 -3.160156 57.109375 -3.140625 57.109375 -3.140625 C 56.597656 -0.972656 55.5625 0.769531 54 2.09375 C 52.445312 3.425781 50.445312 4.210938 48 4.453125 C 45.632812 4.609375 43.671875 4.101562 42.109375 2.9375 C 40.546875 1.769531 39.460938 0.0195312 38.859375 -2.3125 C 38.578125 -3.445312 38.425781 -4.597656 38.40625 -5.765625 C 38.394531 -6.941406 38.425781 -8.117188 38.5 -9.296875 C 38.550781 -10.046875 38.609375 -10.789062 38.671875 -11.53125 C 38.785156 -12.75 38.863281 -13.984375 38.90625 -15.234375 C 38.914062 -17.179688 38.484375 -18.457031 37.609375 -19.0625 C 36.742188 -19.675781 35.617188 -19.890625 34.234375 -19.703125 C 32.847656 -19.515625 31.46875 -19.207031 30.09375 -18.78125 C 29.3125 -18.5625 28.585938 -18.382812 27.921875 -18.25 C 27.660156 -18.207031 27.46875 -18.097656 27.34375 -17.921875 C 27.21875 -17.742188 27.109375 -17.554688 27.015625 -17.359375 C 26.523438 -15.960938 26.054688 -14.566406 25.609375 -13.171875 C 21.359375 -0.304688 16.535156 12.328125 11.140625 24.734375 C 10.285156 26.617188 9.40625 28.5 8.5 30.375 C 8.289062 30.8125 8.046875 31.21875 7.765625 31.59375 C 7.484375 31.96875 7.117188 32.269531 6.671875 32.5 C 5.828125 32.90625 5.113281 32.96875 4.53125 32.6875 C 3.957031 32.40625 3.613281 31.796875 3.5 30.859375 C 3.363281 29.753906 3.332031 28.628906 3.40625 27.484375 C 3.875 20.554688 4.960938 14.507812 6.671875 9.34375 C 8.390625 4.175781 10.703125 -0.617188 13.609375 -5.046875 C 16.515625 -9.484375 19.972656 -14.050781 23.984375 -18.75 C 24.609375 -19.457031 25.066406 -20.28125 25.359375 -21.21875 C 25.773438 -22.507812 26.191406 -23.796875 26.609375 -25.078125 C 28.140625 -29.847656 29.632812 -34.617188 31.09375 -39.390625 C 32.5625 -44.171875 33.890625 -48.988281 35.078125 -53.84375 C 36.265625 -58.675781 36.695312 -62.210938 36.375 -64.453125 C 36.0625 -66.691406 34.832031 -67.695312 32.6875 -67.46875 C 30.539062 -67.238281 27.34375 -65.816406 23.09375 -63.203125 C 18.914062 -60.660156 14.875 -57.914062 10.96875 -54.96875 C 7.0625 -52.03125 3.238281 -48.953125 -0.5 -45.734375 C -1.894531 -44.566406 -3.609375 -43.03125 -5.640625 -41.125 C -7.671875 -39.226562 -9.648438 -37.222656 -11.578125 -35.109375 C -13.503906 -32.992188 -15.050781 -30.992188 -16.21875 -29.109375 C -17.050781 -27.660156 -17.164062 -26.753906 -16.5625 -26.390625 C -15.957031 -26.023438 -14.851562 -25.945312 -13.25 -26.15625 C -12.476562 -26.25 -11.171875 -26.457031 -9.328125 -26.78125 C -7.492188 -27.113281 -5.457031 -27.554688 -3.21875 -28.109375 C -1.96875 -28.421875 -0.75 -28.726562 0.4375 -29.03125 C 2.226562 -29.519531 3.765625 -29.90625 5.046875 -30.1875 C 6.335938 -30.46875 7.125 -30.519531 7.40625 -30.34375 C 7.53125 -30.125 6.671875 -29.710938 4.828125 -29.109375 C 2.992188 -28.515625 0.71875 -27.863281 -2 -27.15625 C -4.71875 -26.457031 -7.367188 -25.863281 -9.953125 -25.375 C -12.535156 -24.882812 -14.515625 -24.648438 -15.890625 -24.671875 C -18.296875 -24.765625 -19.503906 -25.484375 -19.515625 -26.828125 C -19.535156 -28.179688 -18.6875 -29.957031 -16.96875 -32.15625 C -15.25 -34.363281 -12.988281 -36.773438 -10.1875 -39.390625 C -7.394531 -42.015625 -4.367188 -44.675781 -1.109375 -47.375 C 2.140625 -50.070312 5.300781 -52.597656 8.375 -54.953125 C 11.445312 -57.304688 14.101562 -59.28125 16.34375 -60.875 C 18.582031 -62.46875 20.101562 -63.515625 20.90625 -64.015625 C 24.175781 -66.035156 27.097656 -67.523438 29.671875 -68.484375 C 32.253906 -69.441406 34.363281 -69.660156 36 -69.140625 C 37.632812 -68.628906 38.660156 -67.191406 39.078125 -64.828125 C 39.492188 -62.472656 39.171875 -58.992188 38.109375 -54.390625 C 37.242188 -50.734375 36.273438 -47.085938 35.203125 -43.453125 C 34.140625 -39.828125 33.050781 -36.21875 31.9375 -32.625 C 31.5 -31.226562 31.050781 -29.796875 30.59375 -28.328125 C 30.351562 -27.535156 30.082031 -26.679688 29.78125 -25.765625 C 30.257812 -25.984375 30.632812 -26.210938 30.90625 -26.453125 C 31.1875 -26.703125 31.429688 -26.953125 31.640625 -27.203125 C 31.734375 -27.296875 31.847656 -27.398438 31.984375 -27.515625 C 37.140625 -32.828125 42.832031 -38.257812 49.0625 -43.8125 C 55.300781 -49.375 61.945312 -54.703125 69 -59.796875 C 76.0625 -64.890625 83.394531 -69.375 91 -73.25 C 98.613281 -77.125 106.378906 -80.035156 114.296875 -81.984375 C 122.210938 -83.941406 130.160156 -84.570312 138.140625 -83.875 C 138.234375 -83.863281 138.332031 -83.800781 138.4375 -83.6875 C 138.539062 -83.570312 138.601562 -83.460938 138.625 -83.359375 C 138.644531 -83.179688 138.601562 -83.03125 138.5 -82.90625 C 138.394531 -82.78125 138.234375 -82.703125 138.015625 -82.671875 C 137.867188 -82.597656 137.707031 -82.585938 137.53125 -82.640625 C 130.875 -83.203125 124.164062 -82.710938 117.40625 -81.171875 C 110.65625 -79.628906 103.9375 -77.300781 97.25 -74.1875 C 90.5625 -71.082031 84.035156 -67.4375 77.671875 -63.25 C 71.304688 -59.070312 65.210938 -54.625 59.390625 -49.90625 C 53.566406 -45.195312 48.140625 -40.457031 43.109375 -35.6875 C 38.085938 -30.925781 33.578125 -26.398438 29.578125 -22.109375 C 29.554688 -22.078125 29.546875 -22.0625 29.546875 -22.0625 C 29.234375 -21.757812 28.9375 -21.4375 28.65625 -21.09375 C 28.382812 -20.75 28.28125 -20.472656 28.34375 -20.265625 C 28.40625 -20.066406 28.796875 -20.035156 29.515625 -20.171875 C 29.710938 -20.210938 29.914062 -20.25 30.125 -20.28125 C 31.40625 -20.625 32.757812 -20.894531 34.1875 -21.09375 C 35.613281 -21.289062 36.957031 -21.269531 38.21875 -21.03125 C 40.050781 -20.613281 41.125 -19.492188 41.4375 -17.671875 C 41.550781 -16.816406 41.585938 -15.960938 41.546875 -15.109375 C 41.472656 -13.691406 41.390625 -12.285156 41.296875 -10.890625 C 41.234375 -9.347656 41.171875 -7.800781 41.109375 -6.25 C 41.023438 -4.414062 41.382812 -2.660156 42.1875 -0.984375 C 42.945312 0.460938 43.925781 1.515625 45.125 2.171875 C 46.332031 2.835938 47.613281 3.078125 48.96875 2.890625 C 50.332031 2.703125 51.617188 2.050781 52.828125 0.9375 C 53.722656 0.09375 54.390625 -0.90625 54.828125 -2.0625 C 54.910156 -2.332031 54.984375 -2.59375 55.046875 -2.84375 C 55.085938 -3.09375 55.15625 -3.332031 55.25 -3.5625 C 55.414062 -3.988281 55.640625 -4.289062 55.921875 -4.46875 C 56.210938 -4.65625 56.492188 -4.6875 56.765625 -4.5625 Z M 22.078125 -11.375 C 22.109375 -11.4375 22.144531 -11.523438 22.1875 -11.640625 C 22.257812 -11.847656 22.351562 -12.113281 22.46875 -12.4375 C 22.59375 -12.769531 22.675781 -13.078125 22.71875 -13.359375 C 22.757812 -13.640625 22.734375 -13.800781 22.640625 -13.84375 C 22.554688 -13.882812 22.359375 -13.726562 22.046875 -13.375 C 16.859375 -7.644531 13.046875 -1.550781 10.609375 4.90625 C 8.171875 11.375 6.738281 18.554688 6.3125 26.453125 C 6.28125 27.140625 6.332031 27.507812 6.46875 27.5625 C 6.601562 27.625 6.78125 27.492188 7 27.171875 C 7.226562 26.847656 7.429688 26.484375 7.609375 26.078125 C 7.796875 25.671875 7.9375 25.378906 8.03125 25.203125 C 10.625 19.191406 13.09375 13.144531 15.4375 7.0625 C 17.789062 0.976562 20.003906 -5.164062 22.078125 -11.375 Z M 22.078125 -11.375 "/></g></g></g><g clip-path="url(#d8afe1a078)"><g clip-path="url(#fd742a14d5)"><g clip-path="url(#3d788b5156)"><g clip-path="url(#41ec96a165)"><path fill="#000000" d="M 190.644531 286.839844 C 175.925781 288.332031 161.070312 285.910156 147.679688 279.835938 C 134.6875 273.9375 123.347656 264.757812 114.890625 253.285156 C 114.683594 253.007812 114.742188 252.617188 115.023438 252.414062 C 115.300781 252.210938 115.691406 252.269531 115.894531 252.546875 C 133.085938 275.859375 161.679688 288.527344 190.519531 285.597656 C 219.355469 282.671875 244.824219 264.519531 256.976562 238.230469 C 257.121094 237.917969 257.492188 237.78125 257.808594 237.925781 C 258.121094 238.066406 258.257812 238.4375 258.113281 238.75 C 252.132812 251.6875 242.871094 262.960938 231.324219 271.347656 C 219.429688 279.988281 205.363281 285.34375 190.644531 286.839844 Z M 190.644531 286.839844 " fill-opacity="1" fill-rule="nonzero"/></g></g></g></g><g clip-path="url(#fe604d11d2)"><g clip-path="url(#235771563f)"><g clip-path="url(#ba86c9f56d)"><g clip-path="url(#00991b65e9)"><path fill="#000000" d="M 162.863281 288.179688 C 160.21875 288.445312 157.546875 288.46875 154.871094 288.242188 C 145.730469 287.476562 136.425781 283.742188 128.671875 277.730469 C 128.425781 277.539062 128.359375 277.207031 128.507812 276.9375 C 128.65625 276.667969 128.976562 276.546875 129.265625 276.648438 C 139.515625 280.347656 150.171875 283.054688 160.941406 284.695312 C 163.164062 285.035156 165.792969 285.386719 168.375 285.417969 C 169.175781 285.429688 169.917969 285.414062 170.644531 285.363281 C 170.960938 285.34375 171.242188 285.5625 171.300781 285.875 C 171.359375 286.1875 171.171875 286.492188 170.867188 286.582031 C 170.183594 286.789062 169.484375 286.980469 168.785156 287.152344 C 166.835938 287.632812 164.855469 287.976562 162.863281 288.179688 Z M 132.96875 279.253906 C 139.746094 283.648438 147.421875 286.367188 154.980469 287 C 158.570312 287.304688 162.152344 287.148438 165.671875 286.535156 C 163.9375 286.390625 162.253906 286.15625 160.753906 285.929688 C 151.339844 284.496094 142.019531 282.253906 132.96875 279.253906 Z M 132.96875 279.253906 " fill-opacity="1" fill-rule="nonzero"/></g></g></g></g><g clip-path="url(#dd45377c58)"><g clip-path="url(#05ba376c3a)"><g clip-path="url(#d515c91c38)"><g clip-path="url(#b6c9431901)"><path fill="#000000" d="M 166.582031 285.910156 C 166.527344 285.914062 166.472656 285.914062 166.414062 285.90625 C 166.121094 285.855469 165.828125 285.800781 165.535156 285.746094 C 165.527344 285.742188 165.519531 285.742188 165.507812 285.738281 C 160.285156 284.726562 155.132812 282.660156 150.605469 279.765625 C 142.878906 274.828125 136.398438 267.191406 132.355469 258.265625 C 132.230469 257.984375 132.324219 257.65625 132.582031 257.488281 C 132.839844 257.320312 133.179688 257.363281 133.390625 257.589844 C 140.714844 265.625 148.867188 272.984375 157.628906 279.453125 C 160.144531 281.308594 162.875 283.207031 165.835938 284.53125 C 166.097656 284.582031 166.363281 284.632812 166.625 284.675781 C 166.964844 284.734375 167.195312 285.054688 167.136719 285.394531 C 167.085938 285.675781 166.851562 285.882812 166.582031 285.910156 Z M 135.445312 261.613281 C 139.378906 268.652344 144.894531 274.636719 151.28125 278.714844 C 154.277344 280.628906 157.550781 282.171875 160.9375 283.269531 C 159.523438 282.371094 158.175781 281.40625 156.886719 280.453125 C 149.230469 274.800781 142.035156 268.476562 135.445312 261.613281 Z M 135.445312 261.613281 " fill-opacity="1" fill-rule="nonzero"/></g></g></g></g><g clip-path="url(#902185af79)"><g clip-path="url(#6ef18ea7db)"><g clip-path="url(#91256a570f)"><g clip-path="url(#2f51360cbe)"><path fill="#000000" d="M 127.542969 270.453125 C 127.570312 270.699219 127.546875 270.941406 127.476562 271.179688 C 127.402344 271.417969 127.289062 271.632812 127.132812 271.824219 C 126.976562 272.015625 126.785156 272.171875 126.566406 272.289062 C 126.347656 272.40625 126.117188 272.476562 125.867188 272.503906 C 125.621094 272.527344 125.378906 272.503906 125.140625 272.433594 C 124.902344 272.363281 124.6875 272.246094 124.496094 272.089844 C 124.300781 271.933594 124.148438 271.746094 124.027344 271.527344 C 123.910156 271.308594 123.839844 271.078125 123.816406 270.832031 C 123.789062 270.585938 123.8125 270.34375 123.882812 270.105469 C 123.957031 269.867188 124.070312 269.652344 124.226562 269.460938 C 124.386719 269.269531 124.574219 269.113281 124.792969 268.996094 C 125.011719 268.878906 125.242188 268.808594 125.492188 268.78125 C 125.738281 268.757812 125.980469 268.78125 126.21875 268.851562 C 126.457031 268.921875 126.671875 269.035156 126.863281 269.191406 C 127.058594 269.347656 127.214844 269.535156 127.332031 269.753906 C 127.449219 269.972656 127.519531 270.207031 127.542969 270.453125 Z M 127.542969 270.453125 " fill-opacity="1" fill-rule="nonzero"/></g></g></g></g><g clip-path="url(#a8454d3df0)"><g clip-path="url(#1ed92db43e)"><g clip-path="url(#f142230532)"><g clip-path="url(#c7366e095a)"><path fill="#000000" d="M 109.855469 240.578125 C 109.878906 240.828125 109.855469 241.070312 109.785156 241.304688 C 109.710938 241.542969 109.597656 241.757812 109.441406 241.949219 C 109.285156 242.144531 109.097656 242.296875 108.878906 242.414062 C 108.660156 242.53125 108.425781 242.605469 108.179688 242.628906 C 107.929688 242.65625 107.6875 242.632812 107.449219 242.558594 C 107.210938 242.488281 106.996094 242.375 106.804688 242.21875 C 106.609375 242.0625 106.457031 241.875 106.339844 241.65625 C 106.21875 241.4375 106.148438 241.207031 106.125 240.957031 C 106.097656 240.710938 106.121094 240.46875 106.195312 240.230469 C 106.265625 239.996094 106.378906 239.78125 106.535156 239.585938 C 106.695312 239.394531 106.882812 239.242188 107.101562 239.121094 C 107.320312 239.003906 107.554688 238.933594 107.800781 238.910156 C 108.046875 238.882812 108.289062 238.90625 108.527344 238.976562 C 108.765625 239.050781 108.980469 239.164062 109.175781 239.320312 C 109.367188 239.476562 109.523438 239.664062 109.640625 239.882812 C 109.757812 240.101562 109.828125 240.332031 109.855469 240.578125 Z M 109.855469 240.578125 " fill-opacity="1" fill-rule="nonzero"/></g></g></g></g><g clip-path="url(#485f200a2c)"><g clip-path="url(#76f668f789)"><g clip-path="url(#05e6fa729c)"><g clip-path="url(#b0623bdaf4)"><path fill="#000000" d="M 102.839844 220.160156 C 102.867188 220.40625 102.84375 220.648438 102.769531 220.886719 C 102.699219 221.125 102.585938 221.339844 102.429688 221.53125 C 102.269531 221.722656 102.082031 221.878906 101.863281 221.996094 C 101.644531 222.113281 101.410156 222.1875 101.164062 222.210938 C 100.917969 222.234375 100.675781 222.214844 100.4375 222.140625 C 100.199219 222.070312 99.984375 221.957031 99.789062 221.800781 C 99.597656 221.644531 99.441406 221.457031 99.324219 221.238281 C 99.207031 221.019531 99.136719 220.785156 99.109375 220.539062 C 99.085938 220.292969 99.109375 220.050781 99.179688 219.8125 C 99.253906 219.574219 99.367188 219.359375 99.523438 219.167969 C 99.679688 218.976562 99.867188 218.820312 100.085938 218.703125 C 100.308594 218.585938 100.539062 218.515625 100.785156 218.488281 C 101.035156 218.464844 101.277344 218.488281 101.515625 218.558594 C 101.753906 218.628906 101.96875 218.746094 102.160156 218.902344 C 102.355469 219.058594 102.507812 219.246094 102.625 219.464844 C 102.746094 219.683594 102.816406 219.914062 102.839844 220.160156 Z M 102.839844 220.160156 " fill-opacity="1" fill-rule="nonzero"/></g></g></g></g><g clip-path="url(#6bdc34dff9)"><g clip-path="url(#4f44735140)"><g clip-path="url(#641651953d)"><g clip-path="url(#aa3af8cec1)"><path fill="#000000" d="M 264.222656 224.910156 C 264.246094 225.160156 264.222656 225.402344 264.152344 225.636719 C 264.082031 225.875 263.96875 226.089844 263.808594 226.28125 C 263.652344 226.476562 263.464844 226.628906 263.246094 226.746094 C 263.027344 226.863281 262.792969 226.9375 262.546875 226.960938 C 262.300781 226.988281 262.054688 226.964844 261.820312 226.890625 C 261.582031 226.820312 261.363281 226.707031 261.171875 226.550781 C 260.980469 226.394531 260.824219 226.207031 260.707031 225.988281 C 260.589844 225.769531 260.519531 225.535156 260.492188 225.289062 C 260.46875 225.042969 260.492188 224.800781 260.5625 224.5625 C 260.632812 224.328125 260.75 224.113281 260.90625 223.917969 C 261.0625 223.726562 261.25 223.570312 261.46875 223.453125 C 261.6875 223.335938 261.921875 223.265625 262.167969 223.242188 C 262.417969 223.214844 262.660156 223.238281 262.898438 223.308594 C 263.136719 223.382812 263.351562 223.496094 263.542969 223.652344 C 263.734375 223.808594 263.890625 223.996094 264.007812 224.214844 C 264.125 224.433594 264.199219 224.664062 264.222656 224.910156 Z M 264.222656 224.910156 " fill-opacity="1" fill-rule="nonzero"/></g></g></g></g><g clip-path="url(#c412b8cccc)"><g clip-path="url(#024dd865af)"><g clip-path="url(#7a020a5e31)"><g clip-path="url(#5b0a9bab96)"><path fill="#000000" d="M 162.695312 285.050781 C 162.640625 285.054688 162.582031 285.054688 162.527344 285.042969 C 146.121094 282.179688 125.066406 271.066406 124.855469 270.957031 C 124.550781 270.792969 124.4375 270.414062 124.597656 270.113281 C 124.761719 269.808594 125.140625 269.695312 125.441406 269.855469 C 125.652344 269.964844 146.535156 280.988281 162.742188 283.816406 C 163.082031 283.875 163.308594 284.199219 163.25 284.539062 C 163.199219 284.820312 162.96875 285.023438 162.695312 285.050781 Z M 162.695312 285.050781 " fill-opacity="1" fill-rule="nonzero"/></g></g></g></g><g clip-path="url(#a242d14918)"><g clip-path="url(#560eecc5d2)"><g clip-path="url(#1624c91e5b)"><g clip-path="url(#09c8aa449a)"><path fill="#000000" d="M 185.300781 294.769531 C 181.199219 295.183594 176.988281 295.117188 172.8125 294.542969 C 172.507812 294.5 172.28125 294.242188 172.273438 293.9375 C 172.269531 293.628906 172.484375 293.363281 172.789062 293.308594 C 183.523438 291.398438 194.109375 288.425781 204.257812 284.476562 C 206.359375 283.660156 208.808594 282.652344 211.066406 281.394531 C 211.765625 281.003906 212.398438 280.617188 213 280.214844 C 213.265625 280.039062 213.621094 280.085938 213.824219 280.332031 C 214.03125 280.574219 214.023438 280.929688 213.804688 281.160156 C 213.316406 281.679688 212.804688 282.195312 212.285156 282.6875 C 208.910156 285.921875 205.039062 288.578125 200.777344 290.570312 C 196.039062 292.800781 190.765625 294.214844 185.300781 294.769531 Z M 177.300781 293.71875 C 185.375 294.140625 193.386719 292.667969 200.25 289.449219 C 203.511719 287.921875 206.535156 285.996094 209.277344 283.710938 C 207.699219 284.453125 206.128906 285.085938 204.710938 285.636719 C 195.84375 289.09375 186.644531 291.804688 177.300781 293.71875 Z M 177.300781 293.71875 " fill-opacity="1" fill-rule="nonzero"/></g></g></g></g><g clip-path="url(#43edca98eb)"><g clip-path="url(#fa07e36278)"><g clip-path="url(#47f4ed3f71)"><g clip-path="url(#4383fa9a51)"><path fill="#000000" d="M 199.171875 285.1875 C 197.0625 285.402344 194.9375 285.464844 192.832031 285.367188 C 183.667969 284.945312 174.226562 281.566406 166.25 275.855469 C 166 275.675781 165.917969 275.34375 166.058594 275.070312 C 166.195312 274.792969 166.511719 274.660156 166.804688 274.753906 C 177.179688 278.058594 187.929688 280.359375 198.761719 281.589844 C 201.871094 281.941406 205.1875 282.222656 208.414062 281.894531 C 208.414062 281.894531 208.417969 281.894531 208.417969 281.894531 C 208.671875 281.808594 208.921875 281.71875 209.171875 281.628906 C 209.496094 281.507812 209.855469 281.671875 209.976562 281.996094 C 210.097656 282.316406 209.933594 282.675781 209.609375 282.796875 C 209.328125 282.898438 209.046875 283 208.765625 283.09375 C 208.757812 283.097656 208.75 283.101562 208.742188 283.105469 C 205.679688 284.152344 202.445312 284.855469 199.171875 285.1875 Z M 170.605469 277.214844 C 177.539062 281.347656 185.316406 283.773438 192.890625 284.121094 C 196.445312 284.285156 200.054688 283.984375 203.539062 283.246094 C 201.863281 283.171875 200.210938 283.011719 198.617188 282.832031 C 189.15625 281.753906 179.75 279.867188 170.605469 277.214844 Z M 170.605469 277.214844 " fill-opacity="1" fill-rule="nonzero"/></g></g></g></g><g clip-path="url(#da36f68c23)"><g clip-path="url(#dfe7a051ab)"><g clip-path="url(#b2bb081a5d)"><g clip-path="url(#6afd426de5)"><path fill="#000000" d="M 168.535156 289.710938 C 168.558594 289.957031 168.535156 290.199219 168.464844 290.4375 C 168.394531 290.671875 168.28125 290.886719 168.121094 291.082031 C 167.964844 291.273438 167.777344 291.425781 167.558594 291.546875 C 167.339844 291.664062 167.105469 291.734375 166.859375 291.757812 C 166.613281 291.785156 166.367188 291.761719 166.132812 291.691406 C 165.894531 291.617188 165.675781 291.503906 165.484375 291.347656 C 165.292969 291.191406 165.136719 291.003906 165.019531 290.785156 C 164.902344 290.566406 164.832031 290.335938 164.804688 290.089844 C 164.78125 289.839844 164.804688 289.597656 164.875 289.363281 C 164.945312 289.125 165.0625 288.910156 165.21875 288.71875 C 165.375 288.523438 165.5625 288.371094 165.78125 288.253906 C 166 288.136719 166.234375 288.0625 166.480469 288.039062 C 166.730469 288.011719 166.972656 288.035156 167.210938 288.109375 C 167.449219 288.179688 167.664062 288.292969 167.855469 288.449219 C 168.046875 288.605469 168.203125 288.792969 168.320312 289.011719 C 168.4375 289.230469 168.511719 289.460938 168.535156 289.710938 Z M 168.535156 289.710938 " fill-opacity="1" fill-rule="nonzero"/></g></g></g></g><g clip-path="url(#2593400a29)"><g clip-path="url(#52db479051)"><g clip-path="url(#440f1931dc)"><g clip-path="url(#ae9427843d)"><path fill="#000000" d="M 176.925781 289.777344 C 170.652344 290.414062 166.214844 290.578125 166.113281 290.582031 C 165.765625 290.59375 165.476562 290.324219 165.464844 289.980469 C 165.453125 289.636719 165.722656 289.347656 166.070312 289.335938 C 166.308594 289.328125 189.921875 288.453125 205.378906 282.820312 C 205.703125 282.703125 206.058594 282.867188 206.179688 283.191406 C 206.296875 283.515625 206.128906 283.875 205.804688 283.992188 C 196.871094 287.246094 185.273438 288.929688 176.925781 289.777344 Z M 176.925781 289.777344 " fill-opacity="1" fill-rule="nonzero"/></g></g></g></g><g clip-path="url(#7ff30da1ce)"><g clip-path="url(#b7154a6238)"><g clip-path="url(#93d3bcd82b)"><g clip-path="url(#6edc87c7a2)"><path fill="#000000" d="M 219.304688 287.125 C 219.074219 287.148438 218.835938 287.035156 218.710938 286.828125 C 218.550781 286.566406 218.605469 286.226562 218.839844 286.027344 C 227.179688 279.019531 234.863281 271.164062 241.675781 262.683594 C 243.085938 260.925781 244.703125 258.835938 246.027344 256.621094 C 246.4375 255.933594 246.792969 255.285156 247.113281 254.632812 C 247.253906 254.347656 247.585938 254.214844 247.882812 254.320312 C 248.183594 254.429688 248.351562 254.742188 248.28125 255.050781 C 248.117188 255.742188 247.933594 256.445312 247.734375 257.128906 C 246.433594 261.613281 244.40625 265.839844 241.71875 269.695312 C 236.476562 277.207031 228.578125 283.382812 219.480469 287.082031 C 219.425781 287.105469 219.363281 287.117188 219.304688 287.125 Z M 245.636719 259.511719 C 244.644531 260.941406 243.601562 262.277344 242.648438 263.460938 C 236.695312 270.875 230.085938 277.8125 222.953125 284.128906 C 230.15625 280.46875 236.359375 275.195312 240.691406 268.984375 C 242.753906 266.03125 244.410156 262.859375 245.636719 259.511719 Z M 245.636719 259.511719 " fill-opacity="1" fill-rule="nonzero"/></g></g></g></g><g clip-path="url(#d48368b15f)"><g clip-path="url(#1765907705)"><g clip-path="url(#8c5b589b59)"><g clip-path="url(#7ddfad6289)"><path fill="#000000" d="M 214.953125 274.160156 C 211.488281 274.511719 207.953125 274.519531 204.425781 274.171875 C 204.121094 274.144531 203.882812 273.894531 203.863281 273.589844 C 203.847656 273.285156 204.054688 273.011719 204.355469 272.945312 C 215 270.628906 225.464844 267.257812 235.464844 262.921875 C 238.332031 261.679688 241.347656 260.265625 243.980469 258.371094 C 244.15625 258.167969 244.328125 257.964844 244.5 257.761719 C 244.722656 257.496094 245.113281 257.457031 245.378906 257.679688 C 245.644531 257.898438 245.683594 258.289062 245.460938 258.554688 C 245.273438 258.785156 245.078125 259.007812 244.886719 259.234375 C 244.878906 259.242188 244.875 259.246094 244.867188 259.253906 C 241.375 263.257812 237.003906 266.679688 232.222656 269.148438 C 227.011719 271.839844 221.09375 273.539062 214.953125 274.160156 Z M 208.878906 273.179688 C 216.957031 273.296875 224.910156 271.519531 231.648438 268.042969 C 234.808594 266.410156 237.785156 264.351562 240.433594 261.976562 C 238.949219 262.746094 237.433594 263.429688 235.960938 264.066406 C 227.222656 267.855469 218.132812 270.914062 208.878906 273.179688 Z M 208.878906 273.179688 " fill-opacity="1" fill-rule="nonzero"/></g></g></g></g><g clip-path="url(#3bdffe4130)"><g clip-path="url(#2befa785d5)"><g clip-path="url(#d1e69be494)"><g clip-path="url(#75202f88c8)"><path fill="#000000" d="M 213.695312 285.933594 C 213.71875 286.179688 213.695312 286.421875 213.625 286.660156 C 213.554688 286.898438 213.4375 287.113281 213.28125 287.304688 C 213.125 287.496094 212.9375 287.652344 212.71875 287.769531 C 212.5 287.886719 212.265625 287.957031 212.019531 287.984375 C 211.769531 288.007812 211.527344 287.984375 211.289062 287.914062 C 211.050781 287.84375 210.835938 287.730469 210.644531 287.574219 C 210.453125 287.414062 210.296875 287.226562 210.179688 287.011719 C 210.0625 286.792969 209.988281 286.558594 209.964844 286.3125 C 209.941406 286.066406 209.960938 285.824219 210.035156 285.585938 C 210.105469 285.347656 210.21875 285.132812 210.378906 284.941406 C 210.535156 284.75 210.722656 284.59375 210.941406 284.476562 C 211.160156 284.359375 211.394531 284.289062 211.640625 284.261719 C 211.886719 284.238281 212.128906 284.261719 212.367188 284.332031 C 212.605469 284.402344 212.820312 284.515625 213.015625 284.675781 C 213.207031 284.832031 213.363281 285.019531 213.480469 285.238281 C 213.597656 285.453125 213.667969 285.6875 213.695312 285.933594 Z M 213.695312 285.933594 " fill-opacity="1" fill-rule="nonzero"/></g></g></g></g><g clip-path="url(#0f62ced9f4)"><g clip-path="url(#d66b2a8b62)"><g clip-path="url(#1a670c94c1)"><g clip-path="url(#499de9cdfa)"><path fill="#000000" d="M 211.421875 287.082031 C 211.191406 287.105469 210.957031 287 210.828125 286.792969 C 210.644531 286.5 210.734375 286.117188 211.027344 285.933594 C 211.226562 285.808594 231.246094 273.269531 241.8125 260.683594 C 242.035156 260.417969 242.429688 260.386719 242.691406 260.605469 C 242.957031 260.828125 242.992188 261.21875 242.769531 261.484375 C 232.074219 274.222656 211.890625 286.863281 211.6875 286.988281 C 211.605469 287.042969 211.511719 287.074219 211.421875 287.082031 Z M 211.421875 287.082031 " fill-opacity="1" fill-rule="nonzero"/></g></g></g></g><g fill="#000000" fill-opacity="1"><g transform="translate(105.601401, 140.956649)"><g><path d="M -4.53125 -9.0625 L -4.734375 -9.640625 L -6.40625 -18.21875 L -4.484375 -20.875 L -2.703125 -11.5 L 8.515625 -11.75 L 6.625 -9.140625 L -2.5 -9.046875 L -2.265625 -7.5 L 2.78125 -3.84375 L 1.28125 -1.765625 L -11.578125 -11.078125 L -10.078125 -13.15625 L -5.140625 -9.578125 Z M -4.53125 -9.0625 "/></g></g></g><g fill="#000000" fill-opacity="1"><g transform="translate(116.666038, 126.474535)"><g><path d="M 3.171875 -5.5625 C 3.671875 -6.03125 4.015625 -6.675781 4.203125 -7.5 L 6.25 -6.953125 C 6.09375 -6.390625 5.867188 -5.84375 5.578125 -5.3125 C 5.285156 -4.789062 4.953125 -4.351562 4.578125 -4 C 3.804688 -3.269531 2.992188 -2.789062 2.140625 -2.5625 C 1.285156 -2.34375 0.457031 -2.359375 -0.34375 -2.609375 C -1.15625 -2.859375 -1.890625 -3.332031 -2.546875 -4.03125 C -3.160156 -4.6875 -3.554688 -5.445312 -3.734375 -6.3125 C -3.910156 -7.1875 -3.863281 -8.054688 -3.59375 -8.921875 C -3.320312 -9.796875 -2.84375 -10.5625 -2.15625 -11.21875 C -1.238281 -12.070312 -0.226562 -12.515625 0.875 -12.546875 C 1.976562 -12.578125 3.09375 -12.207031 4.21875 -11.4375 L 0.6875 -4.8125 C 1.125 -4.695312 1.554688 -4.707031 1.984375 -4.84375 C 2.421875 -4.988281 2.816406 -5.226562 3.171875 -5.5625 Z M -0.984375 -9.671875 C -1.535156 -9.148438 -1.804688 -8.523438 -1.796875 -7.796875 C -1.785156 -7.078125 -1.484375 -6.398438 -0.890625 -5.765625 C -0.785156 -5.648438 -0.695312 -5.566406 -0.625 -5.515625 L 1.71875 -10.09375 C 1.269531 -10.289062 0.8125 -10.367188 0.34375 -10.328125 C -0.113281 -10.285156 -0.554688 -10.066406 -0.984375 -9.671875 Z M -0.984375 -9.671875 "/></g></g></g><g fill="#000000" fill-opacity="1"><g transform="translate(127.916547, 116.471411)"><g><path d="M -1.984375 -9.90625 L 3.359375 -2.390625 L 1.359375 -0.96875 L -3.984375 -8.484375 Z M -5.734375 -11.625 C -5.953125 -11.914062 -6.015625 -12.25 -5.921875 -12.625 C -5.835938 -13 -5.644531 -13.296875 -5.34375 -13.515625 C -5.0625 -13.710938 -4.726562 -13.789062 -4.34375 -13.75 C -3.96875 -13.707031 -3.671875 -13.539062 -3.453125 -13.25 C -3.242188 -12.945312 -3.1875 -12.613281 -3.28125 -12.25 C -3.375 -11.882812 -3.5625 -11.601562 -3.84375 -11.40625 C -4.144531 -11.1875 -4.484375 -11.09375 -4.859375 -11.125 C -5.234375 -11.15625 -5.523438 -11.320312 -5.734375 -11.625 Z M -5.734375 -11.625 "/></g></g></g><g fill="#000000" fill-opacity="1"><g transform="translate(135.609377, 111.180981)"><g><path d="M -1.9375 -14.0625 L 0 -10.484375 L 2.09375 -11.625 L 3.015625 -9.9375 L 0.921875 -8.796875 L 4.40625 -2.390625 L 2.265625 -1.234375 L -1.21875 -7.640625 L -2.625 -6.875 L -3.546875 -8.5625 L -2.140625 -9.328125 L -4.078125 -12.90625 Z M -1.9375 -14.0625 "/></g></g></g><g fill="#000000" fill-opacity="1"><g transform="translate(145.765189, 105.767585)"><g><path d="M 4 -11.640625 C 4.8125 -11.921875 5.570312 -11.914062 6.28125 -11.625 C 7 -11.332031 7.503906 -10.804688 7.796875 -10.046875 L 10.09375 -3.609375 L 7.796875 -2.78125 L 5.78125 -8.40625 C 5.59375 -8.84375 5.332031 -9.148438 5 -9.328125 C 4.664062 -9.503906 4.265625 -9.519531 3.796875 -9.375 C 3.078125 -9.113281 2.597656 -8.59375 2.359375 -7.8125 C 2.128906 -7.03125 2.179688 -6.175781 2.515625 -5.25 L 3.890625 -1.390625 L 1.578125 -0.5625 L -4.140625 -16.578125 L -1.875 -17.390625 L 1.265625 -8.578125 C 1.390625 -9.253906 1.679688 -9.863281 2.140625 -10.40625 C 2.609375 -10.945312 3.226562 -11.359375 4 -11.640625 Z M 4 -11.640625 "/></g></g></g><g fill="#000000" fill-opacity="1"><g transform="translate(160.779493, 100.885425)"><g/></g></g><g fill="#000000" fill-opacity="1"><g transform="translate(170.896039, 98.823417)"><g><path d="M 14.375 -16.3125 L 8.734375 -5.40625 L 8.890625 -0.265625 L 6.359375 -0.1875 L 6.203125 -5.328125 L 0.03125 -15.890625 L 3.15625 -15.984375 L 7.484375 -8.28125 L 11.265625 -16.21875 Z M 14.375 -16.3125 "/></g></g></g><g fill="#000000" fill-opacity="1"><g transform="translate(189.409908, 98.700839)"><g><path d="M 12.703125 -7.203125 L 11.171875 1.890625 L 8.765625 1.484375 L 8.984375 0.171875 C 8.585938 0.515625 8.082031 0.796875 7.46875 1.015625 C 6.851562 1.234375 6.175781 1.28125 5.4375 1.15625 C 4.5625 1.007812 3.8125 0.695312 3.1875 0.21875 C 2.5625 -0.257812 2.109375 -0.890625 1.828125 -1.671875 C 1.554688 -2.453125 1.503906 -3.351562 1.671875 -4.375 C 1.835938 -5.375 2.191406 -6.210938 2.734375 -6.890625 C 3.285156 -7.566406 3.941406 -8.050781 4.703125 -8.34375 C 5.460938 -8.632812 6.257812 -8.710938 7.09375 -8.578125 C 8.5625 -8.328125 9.570312 -7.597656 10.125 -6.390625 L 10.5 -7.578125 Z M 6.4375 -0.6875 C 7.101562 -0.582031 7.6875 -0.660156 8.1875 -0.921875 C 8.695312 -1.179688 9.097656 -1.609375 9.390625 -2.203125 L 9.71875 -4.171875 C 9.632812 -4.753906 9.375 -5.257812 8.9375 -5.6875 C 8.507812 -6.113281 7.96875 -6.378906 7.3125 -6.484375 C 6.5625 -6.617188 5.875 -6.460938 5.25 -6.015625 C 4.632812 -5.578125 4.257812 -4.941406 4.125 -4.109375 C 4.03125 -3.554688 4.070312 -3.035156 4.25 -2.546875 C 4.425781 -2.066406 4.707031 -1.660156 5.09375 -1.328125 C 5.488281 -0.992188 5.9375 -0.78125 6.4375 -0.6875 Z M 6.4375 -0.6875 "/></g></g></g><g fill="#000000" fill-opacity="1"><g transform="translate(205.405023, 101.735268)"><g><path d="M 10.5 -6.40625 C 11.3125 -6.101562 11.898438 -5.613281 12.265625 -4.9375 C 12.628906 -4.257812 12.679688 -3.535156 12.421875 -2.765625 L 10.078125 3.671875 L 7.78125 2.828125 L 9.828125 -2.78125 C 9.953125 -3.238281 9.941406 -3.640625 9.796875 -3.984375 C 9.660156 -4.335938 9.359375 -4.609375 8.890625 -4.796875 C 8.171875 -5.054688 7.472656 -4.960938 6.796875 -4.515625 C 6.128906 -4.078125 5.625 -3.382812 5.28125 -2.4375 L 3.875 1.40625 L 1.578125 0.578125 L 4.734375 -8.078125 L 6.796875 -7.328125 L 6.390625 -5.734375 C 6.929688 -6.222656 7.554688 -6.523438 8.265625 -6.640625 C 8.984375 -6.765625 9.726562 -6.6875 10.5 -6.40625 Z M 10.5 -6.40625 "/></g></g></g><g fill="#000000" fill-opacity="1"><g transform="translate(220.025881, 107.377969)"><g><path d="M 3.15625 -3.59375 C 3.613281 -4.394531 4.222656 -5.007812 4.984375 -5.4375 C 5.753906 -5.875 6.582031 -6.082031 7.46875 -6.0625 C 8.351562 -6.050781 9.234375 -5.789062 10.109375 -5.28125 C 10.972656 -4.78125 11.632812 -4.144531 12.09375 -3.375 C 12.550781 -2.613281 12.773438 -1.800781 12.765625 -0.9375 C 12.753906 -0.0820312 12.515625 0.75 12.046875 1.5625 C 11.578125 2.363281 10.972656 2.976562 10.234375 3.40625 C 9.492188 3.84375 8.675781 4.050781 7.78125 4.03125 C 6.894531 4.019531 6.015625 3.757812 5.140625 3.25 C 4.273438 2.75 3.609375 2.128906 3.140625 1.390625 C 2.671875 0.660156 2.429688 -0.132812 2.421875 -1 C 2.410156 -1.863281 2.65625 -2.726562 3.15625 -3.59375 Z M 5.265625 -2.375 C 4.847656 -1.644531 4.722656 -0.910156 4.890625 -0.171875 C 5.054688 0.566406 5.460938 1.125 6.109375 1.5 C 6.796875 1.894531 7.492188 1.976562 8.203125 1.75 C 8.910156 1.53125 9.472656 1.050781 9.890625 0.3125 C 10.316406 -0.414062 10.453125 -1.144531 10.296875 -1.875 C 10.148438 -2.601562 9.734375 -3.164062 9.046875 -3.5625 C 8.398438 -3.9375 7.710938 -4.003906 6.984375 -3.765625 C 6.253906 -3.535156 5.679688 -3.070312 5.265625 -2.375 Z M 5.265625 -2.375 "/></g></g></g><g fill="#000000" fill-opacity="1"><g transform="translate(233.186113, 115.451077)"><g><path d="M 3.328125 2.96875 C 2.765625 2.519531 2.320312 1.992188 2 1.390625 C 1.675781 0.796875 1.5 0.1875 1.46875 -0.4375 L 3.140625 -0.84375 C 3.253906 0.226562 3.625 1.019531 4.25 1.53125 C 4.582031 1.8125 4.910156 1.972656 5.234375 2.015625 C 5.554688 2.066406 5.820312 1.960938 6.03125 1.703125 C 6.257812 1.429688 6.316406 1.132812 6.203125 0.8125 C 6.085938 0.488281 5.925781 0.175781 5.71875 -0.125 C 5.507812 -0.4375 5.375 -0.632812 5.3125 -0.71875 C 4.851562 -1.414062 4.617188 -2.070312 4.609375 -2.6875 C 4.609375 -3.300781 4.8125 -3.859375 5.21875 -4.359375 C 5.539062 -4.753906 5.9375 -5.039062 6.40625 -5.21875 C 6.882812 -5.40625 7.410156 -5.441406 7.984375 -5.328125 C 8.554688 -5.222656 9.128906 -4.9375 9.703125 -4.46875 C 10.242188 -4.019531 10.664062 -3.570312 10.96875 -3.125 C 11.269531 -2.675781 11.488281 -2.171875 11.625 -1.609375 L 9.953125 -1.0625 C 9.910156 -1.425781 9.789062 -1.78125 9.59375 -2.125 C 9.394531 -2.46875 9.179688 -2.734375 8.953125 -2.921875 C 8.660156 -3.160156 8.363281 -3.289062 8.0625 -3.3125 C 7.757812 -3.34375 7.519531 -3.253906 7.34375 -3.046875 C 7.125 -2.785156 7.0625 -2.507812 7.15625 -2.21875 C 7.257812 -1.925781 7.472656 -1.519531 7.796875 -1 C 7.953125 -0.789062 8.046875 -0.65625 8.078125 -0.59375 C 8.484375 0.0507812 8.71875 0.660156 8.78125 1.234375 C 8.84375 1.816406 8.660156 2.367188 8.234375 2.890625 C 7.660156 3.585938 6.929688 3.960938 6.046875 4.015625 C 5.160156 4.078125 4.253906 3.726562 3.328125 2.96875 Z M 3.328125 2.96875 "/></g></g></g><g fill="#000000" fill-opacity="1"><g transform="translate(242.824734, 123.561535)"><g><path d="M 14.078125 1.875 L -0.046875 6.5625 L -1.65625 4.765625 L 3.375 3.15625 L 7.078125 -5.90625 L 8.921875 -3.859375 L 6.203125 2.25 L 12.578125 0.21875 Z M 14.078125 1.875 "/></g></g></g></svg>